<?xml version="1.0" encoding="UTF-8"?>
<svg width="100pt" height="100pt" version="1.1" viewBox="0 0 100 100" xmlns="http://www.w3.org/2000/svg">
 <path d="m87.5 84.375h0.042969c1.7148 0 3.125 1.4102 3.125 3.125s-1.4102 3.125-3.125 3.125h-0.042969-12.5-0.042969c-1.7148 0-3.125-1.4102-3.125-3.125s1.4102-3.125 3.125-3.125h0.042969zm0-12.5h0.042969c1.7148 0 3.125 1.4102 3.125 3.125s-1.4102 3.125-3.125 3.125h-0.042969-17.457l-11.586 11.586c-0.58594 0.58594-1.3828 0.91406-2.2109 0.91406h-43.75-0.042969c-1.7148 0-3.125-1.4102-3.125-3.125s1.4102-3.125 3.125-3.125h0.042969 42.457l11.586-11.586c0.58594-0.58594 1.3828-0.91406 2.2109-0.91406zm-37.5 0h0.042969c1.7148 0 3.125 1.4102 3.125 3.125s-1.4102 3.125-3.125 3.125h-0.042969-37.5-0.042969c-1.7148 0-3.125-1.4102-3.125-3.125s1.4102-3.125 3.125-3.125h0.042969zm37.438-25.031h0.09375c1.7148 0 3.125 1.4102 3.125 3.125 0 0.84375-0.33984 1.6523-0.94531 2.2422l-12.5 12.5c-0.58594 0.58594-1.3828 0.91406-2.2109 0.91406h-62.5-0.042969c-1.7148 0-3.125-1.4102-3.125-3.125s1.4102-3.125 3.125-3.125h0.042969 61.207l11.586-11.586c0.56641-0.58203 1.3359-0.92187 2.1484-0.94531zm-49.938 0.03125h0.042969c1.7148 0 3.125 1.4102 3.125 3.125s-1.4102 3.125-3.125 3.125h-0.042969-25-0.042969c-1.7148 0-3.125-1.4102-3.125-3.125s1.4102-3.125 3.125-3.125h0.042969zm50-12.5h0.042969c1.7148 0 3.125 1.4102 3.125 3.125s-1.4102 3.125-3.125 3.125h-0.042969-4.957l-11.586 11.586c-0.58594 0.58594-1.3828 0.91406-2.2109 0.91406h-18.75-0.042969c-1.7148 0-3.125-1.4102-3.125-3.125s1.4102-3.125 3.125-3.125h0.042969 17.457l11.586-11.586c0.58594-0.58594 1.3828-0.91406 2.2109-0.91406zm-25 0h0.042969c1.7148 0 3.125 1.4102 3.125 3.125s-1.4102 3.125-3.125 3.125h-0.042969-50-0.042969c-1.7148 0-3.125-1.4102-3.125-3.125s1.4102-3.125 3.125-3.125h0.042969zm-18.75-6.25c-0.82812 0-1.625-0.33203-2.2109-0.91406l-11.586-11.586h-17.457-0.042969c-1.7148 0-3.125-1.4102-3.125-3.125s1.4102-3.125 3.125-3.125h0.042969 18.75c0.82812 0 1.625 0.33203 2.2109 0.91406l11.586 11.586h42.457 0.042969c1.7148 0 3.125 1.4102 3.125 3.125s-1.4102 3.125-3.125 3.125h-0.042969zm-18.75-6.25h0.042969c1.7148 0 3.125 1.4102 3.125 3.125s-1.4102 3.125-3.125 3.125h-0.042969-12.5-0.042969c-1.7148 0-3.125-1.4102-3.125-3.125s1.4102-3.125 3.125-3.125h0.042969zm62.5-12.5h0.042969c1.7148 0 3.125 1.4102 3.125 3.125s-1.4102 3.125-3.125 3.125h-0.042969-37.5-0.042969c-1.7148 0-3.125-1.4102-3.125-3.125s1.4102-3.125 3.125-3.125h0.042969z" fill="#fff"/>
</svg>
