<?xml version="1.0" encoding="UTF-8"?>
<svg width="100pt" height="100pt" version="1.1" viewBox="0 0 100 100" xmlns="http://www.w3.org/2000/svg">
 <g>
  <path d="m5 0h90c2.7617 0 5 2.7617 5 5v90c0 2.7617-2.2383 5-5 5h-90c-2.7617 0-5-2.7617-5-5v-90c0-2.7617 2.2383-5 5-5z" fill="#005f73"/>
  <path d="m70.891 49.375h-10.852c-0.37891 0-0.67578 0.30469-0.67578 0.67578v13.098c0 0.36719 0.29688 0.67578 0.67578 0.67578h10.852c0.36719 0 0.67578-0.30469 0.67578-0.67578v-13.098c0-0.37109-0.30859-0.67578-0.67578-0.67578zm-0.67578 13.098h-9.5v-11.75h9.5z" fill="#fff"/>
  <path d="m62.078 58.906h0.64062c0.37109 0 0.67578-0.30078 0.67578-0.67578 0-0.37109-0.30078-0.67578-0.67578-0.67578h-0.64062c-0.37109 0-0.67578 0.30078-0.67578 0.67578 0.003906 0.375 0.30469 0.67578 0.67578 0.67578z" fill="#fff"/>
  <path d="m65.785 57.559h-0.64062c-0.37109 0-0.67578 0.30078-0.67578 0.67578 0 0.37109 0.30078 0.67578 0.67578 0.67578h0.64062c0.37109 0 0.67578-0.30078 0.67578-0.67578-0.003907-0.375-0.30469-0.67578-0.67578-0.67578z" fill="#fff"/>
  <path d="m67.527 58.23c0 0.37109 0.30078 0.67578 0.67578 0.67578h0.64062c0.37109 0 0.67578-0.30078 0.67578-0.67578 0-0.37109-0.30078-0.67578-0.67578-0.67578h-0.64062c-0.375 0.003906-0.67578 0.30469-0.67578 0.67578z" fill="#fff"/>
  <path d="m62.078 61.398h0.64062c0.37109 0 0.67578-0.30078 0.67578-0.67578 0-0.37109-0.30078-0.67578-0.67578-0.67578h-0.64062c-0.37109 0-0.67578 0.30078-0.67578 0.67578 0.003906 0.37109 0.30469 0.67578 0.67578 0.67578z" fill="#fff"/>
  <path d="m65.785 60.047h-0.64062c-0.37109 0-0.67578 0.30078-0.67578 0.67578 0 0.37109 0.30078 0.67578 0.67578 0.67578h0.64062c0.37109 0 0.67578-0.30078 0.67578-0.67578-0.003907-0.37109-0.30469-0.67578-0.67578-0.67578z" fill="#fff"/>
  <path d="m68.844 60.047h-0.64062c-0.37109 0-0.67578 0.30078-0.67578 0.67578 0 0.37109 0.30078 0.67578 0.67578 0.67578h0.64062c0.37109 0 0.67578-0.30078 0.67578-0.67578 0-0.37109-0.30078-0.67578-0.67578-0.67578z" fill="#fff"/>
  <path d="m65.465 56.48c1.2969 0 2.3477-1.0508 2.3477-2.3398 0-1.2969-1.0508-2.3477-2.3477-2.3477s-2.3477 1.0508-2.3477 2.3477c0 1.2891 1.0508 2.3398 2.3477 2.3398zm0-3.3359c0.54688 0 1 0.44922 1 1 0 0.54688-0.44922 0.98828-1 0.98828-0.54688 0-1-0.44141-1-0.98828 0-0.55078 0.45312-1 1-1z" fill="#fff"/>
  <path d="m76.441 40.484h-1.5312v-2.3828c0-2.2227-1.8086-4.0195-4.0195-4.0195h-5.9531v-1.1797h1.1211c0.87109 0 1.5742-0.71094 1.5742-1.5742v-7.1523c0-0.86328-0.70312-1.5742-1.5742-1.5742h-1.125v-1.0508c0-0.36719-0.29688-0.67578-0.67578-0.67578-0.36719 0-0.67578 0.30469-0.67578 0.67578v1.0508h-1.125c-0.86328 0-1.5742 0.71094-1.5742 1.5742v7.1523c0 0.86328 0.71094 1.5742 1.5742 1.5742h1.125v1.1797h-6.8438v-1.1797h1.125c0.87109 0 1.5742-0.71094 1.5742-1.5742v-7.1523c0-0.86328-0.70312-1.5742-1.5742-1.5742h-1.125v-1.0508c0-0.36719-0.29688-0.67578-0.67578-0.67578-0.36719 0-0.67578 0.30469-0.67578 0.67578v1.0508h-1.125c-0.86328 0-1.5742 0.71094-1.5742 1.5742v7.1523c0 0.86328 0.71094 1.5742 1.5742 1.5742h1.1289v1.1797h-24.438v-1.6289c0-0.83594-0.67578-1.5117-1.5117-1.5117h-1.7539c-0.82812 0-1.5117 0.67578-1.5117 1.5117v1.6289h-0.93359c-2.2227 0-4.0312 1.8008-4.0312 4.0195v13.648c0 1.7539 1.4297 3.1836 3.1836 3.1836h3.4961v7.707c0 0.37109 0.30078 0.67578 0.67578 0.67578 0.37109 0 0.67578-0.30078 0.67578-0.67578v-7.707h3.4961c1.7539 0 3.1836-1.4297 3.1836-3.1836v-2.8242c0-1.0078 0.82812-1.8359 1.8359-1.8359h16.418c1.0156 0 1.8359 0.82812 1.8359 1.8359v18.027h-29.051c-3.168 0-5.75 2.582-5.75 5.75v5.75c0 0.37891 0.30469 0.67578 0.67578 0.67578h52.352c0.36719 0 0.67578-0.29688 0.67578-0.67578v-26.395h1.5312c1.2969 0 2.3477-1.0508 2.3477-2.3477v-6.875c-0.003907-1.2969-1.0586-2.3516-2.3516-2.3516zm-14.207-9.1562v-7.1523c0-0.11719 0.097656-0.22656 0.22656-0.22656h3.5977c0.125 0 0.22656 0.10938 0.22656 0.22656v7.1523c0 0.125-0.097656 0.22656-0.22656 0.22656h-3.5977c-0.125-0.003907-0.22656-0.10156-0.22656-0.22656zm-8.1953 0v-7.1523c0-0.11719 0.10938-0.22656 0.22656-0.22656h3.5977c0.125 0 0.22656 0.10938 0.22656 0.22656v7.1523c0 0.125-0.097656 0.22656-0.22656 0.22656h-3.5977c-0.11719-0.003907-0.22656-0.10156-0.22656-0.22656zm-26.512 1.125c0-0.089844 0.082031-0.16016 0.16016-0.16016h1.7539c0.089844 0 0.16016 0.070312 0.16016 0.16016v1.6289h-2.0781zm46.035 45.324h-51.004v-5.0742c0-2.4297 1.9688-4.3984 4.3984-4.3984h42.207c2.4219 0 4.3984 1.9688 4.3984 4.3984zm-4.3984-10.824h-11.805v-18.027c0-1.7539-1.4219-3.1836-3.1836-3.1836l-16.422-0.003907c-1.7539 0-3.1836 1.4297-3.1836 3.1836v2.8242c0 1.0078-0.82812 1.8359-1.8359 1.8359h-8.3398c-1.0078 0-1.8359-0.82812-1.8359-1.8359v-13.648c0-1.4766 1.207-2.6719 2.6797-2.6719h45.648c1.4766 0 2.6719 1.1953 2.6719 2.6719v30.914c-1.0391-1.2578-2.6328-2.0586-4.3945-2.0586zm8.2734-17.246c0 0.54688-0.44922 1-1 1h-1.5312v-8.8711h1.5312c0.54688 0 1 0.44141 1 1z" fill="#fff"/>
  <path d="m31.359 47.957h-5.5859c-0.37109 0-0.67578 0.30078-0.67578 0.67578 0 0.37109 0.30078 0.67578 0.67578 0.67578h5.582c0.37109 0 0.67578-0.30078 0.67578-0.67578s-0.30078-0.67578-0.67188-0.67578z" fill="#fff"/>
  <path d="m31.359 43.891h-5.5859c-0.37109 0-0.67578 0.30078-0.67578 0.67578 0 0.37109 0.30078 0.67578 0.67578 0.67578h5.582c0.37109 0 0.67578-0.30078 0.67578-0.67578s-0.30078-0.67578-0.67188-0.67578z" fill="#fff"/>
 </g>
</svg>
