<?xml version="1.0" encoding="UTF-8"?>
<svg width="100pt" height="100pt" version="1.1" viewBox="0 0 100 100" xmlns="http://www.w3.org/2000/svg">
 <g>
  <path d="m5 0h90c2.7617 0 5 2.7617 5 5v90c0 2.7617-2.2383 5-5 5h-90c-2.7617 0-5-2.7617-5-5v-90c0-2.7617 2.2383-5 5-5z" fill="#0a9396"/>
  <path d="m41.395 20.824c-0.56641 0.011719-1.1289 0.035156-1.6953 0.070312-0.66016 0.03125-1.3203 0.070313-1.9805 0.089844-0.65625 0.023437-1.3125 0.042969-1.9688 0.070313-0.62891 0.023437-1.2617 0.046874-1.8906 0.0625-0.51172 0.011718-1.0273 0.023437-1.543 0.027343-0.37891 0.007813-0.76172 0.027344-1.1406 0.019531-0.23438-0.007812-0.46875-0.015624-0.70312-0.050781-0.26172-0.046875-0.45703 0.042969-0.58203 0.1875-0.85547 0.20703-0.87891 1.5508 0.17969 1.6562 0.36719 0.078125 0.71875 0.21484 1.0742 0.34375 0.92578 0.32812 1.8359 0.69922 2.7422 1.0781 1.3867 0.60156 2.7656 1.2227 4.1562 1.8164 1.6289 0.69922 3.2812 1.3516 4.9375 1.9844 1.75 0.65625 3.5156 1.2695 5.2812 1.8828 0.3125 0.11328 0.62109 0.23047 0.92969 0.34375-0.27344 0.089844-0.55078 0.17188-0.82031 0.27344-0.36719 0.13672-0.72266 0.29687-1.0781 0.46875-0.44531 0.22656-0.84375 0.25781-0.99219 0.51562-0.28516 0.64063-0.20312 1.4102-0.13672 2.0977-0.027343 0.48047-0.054687 0.96094-0.097656 1.4375-0.015625 0.15625-0.039062 0.3125-0.058594 0.47266-0.13672-0.10156-0.30859-0.19922-0.36719-0.23047-0.27734-0.13281-0.56641-0.25-0.84766-0.375-0.42188-0.1875-0.83203-0.40625-1.2539-0.59766-0.65625-0.29688-1.3203-0.58203-1.9844-0.85938-0.875-0.35938-1.7539-0.70703-2.6484-1.0234-1.0273-0.36719-2.0547-0.72266-3.082-1.0859-1.1289-0.41406-2.2539-0.82812-3.3828-1.2383-1.1328-0.41016-2.2578-0.83594-3.3789-1.2695-0.96875-0.37109-1.9414-0.73828-2.8906-1.1602-0.71094-0.31641-1.418-0.64453-2.1172-0.98828-0.375-0.17969-0.74609-0.36719-1.1055-0.57812-1.0234-0.61328-2.1133 0.72266-1.0938 1.3359-0.49219 1.207 0.19531 6.9883-0.035157 10.766-0.89453-0.30859-1.0234 1.4492 0.054688 1.7305 0.28516 0.09375 0.55859 0.21484 0.83594 0.33203 0.46094 0.19141 0.92578 0.37109 1.3828 0.5625 0.48828 0.21094 0.97656 0.41016 1.4609 0.625 0.37891 0.16797 0.75391 0.33984 1.1289 0.51172 0.15234 0.054688 0.28906 0.13281 0.42578 0.21484-0.61328 1.0977-1.1289 2.25-1.5352 3.4414-0.078125 0.23438-0.15234 0.46875-0.22656 0.70703-0.27344 0.90234-0.48438 1.8203-0.63281 2.7461-0.09375 0.58203-0.10156 0.71875-0.16797 1.3008-0.12891 1.168-0.125 2.3281-0.054687 3.5 0.058593 0.88672 0.17578 1.7656 0.30859 2.6406 0.09375 0.60937 0.20703 1.2148 0.35547 1.8125 0.097656 0.36719 0.21094 0.72266 0.40234 1.0508 0.042968 0.078125 0.10547 0.14844 0.15625 0.22266 0.12891 0.17578 0.28125 0.28125 0.43359 0.33984 0.066406 0.050781 0.13672 0.097656 0.22656 0.13672 0.3125 0.12109 0.60547 0.28906 0.88672 0.47266 0.66016 0.45703 1.3086 0.93359 1.9688 1.3945 1.0664 0.70703 2.1797 1.3359 3.2969 1.957 1.4062 0.76953 2.8359 1.5 4.2773 2.1992 1.6367 0.78516 3.2852 1.543 4.9258 2.3164 1.7227 0.80078 3.4297 1.6367 5.1328 2.4766 1.6641 0.80859 3.3242 1.6367 4.9688 2.4844 1.543 0.79297 3.0703 1.6172 4.6016 2.4375 1.2891 0.67188 2.5742 1.3555 3.8711 2.0156 0.71094 0.35547 1.418 0.72656 2.1562 1.0312 0.40625 0.16797 0.52344 0.20312 0.92969 0.34375 0.56641 0.15625 0.28906 0.089844 0.83594 0.19922 1.0078 0.19531 1.3828-1 0.72266-1.4844v-0.035157c0-0.12109-0.007813-0.24219-0.039063-0.35547-0.011718-0.039062-0.039062-0.17578-0.078125-0.20703-0.042969-0.21094-0.066406-0.42578-0.078125-0.64062-0.007812-0.48828-0.003906-0.97656 0.082032-1.457 0.14062-0.82031 0.32812-1.6328 0.58203-2.4258 0.33594-1.0547 0.6875-2.1016 1.0312-3.1523 0.41797-1.2656 0.84766-2.5312 1.3359-3.7695 0.23047-0.55469 0.33594-0.82812 0.58984-1.375 0.44141-0.95312 0.94531-1.8789 1.4922-2.7773 0.058593-0.097656 0.12109-0.19141 0.18359-0.28516 0.30469 0.11719 0.60938 0.23047 0.91406 0.33984 0.6875 0.23438 1.3828 0.43359 2.0742 0.65625 0.62891 0.20703 1.2617 0.41016 1.8789 0.65625 0.42969 0.19141 0.83984 0.41406 1.2539 0.63672 0.3125 0.17188 0.63672 0.32031 0.96484 0.45703 0.1875 0.085938 0.38281 0.15234 0.57031 0.23438 1.1016 0.45703 1.668-0.58594 1.1641-1.6758 0.25391-6.582 0.17188-8.2109 0.58984-10.617 0.70703-0.96094-0.64844-1.9609-1.3594-1-0.039062 0.054687-0.078124 0.10938-0.12891 0.15625-0.13281 0.13672-0.26953 0.26953-0.41016 0.39453-0.32422 0.25781-0.64844 0.51172-0.96484 0.77734-0.32812 0.27344-0.64844 0.5625-0.98438 0.82422-0.23438 0.17578-0.46875 0.35156-0.71094 0.51172-0.16406 0.125-0.26953 0.26562-0.32422 0.41406-0.32422 0.16797-0.63281 0.37109-0.92969 0.58203-0.92188 0.65625-1.7188 1.4609-2.4844 2.2852-1.0352 1.1562-1.8945 2.4492-2.7188 3.7578-0.57812 0.95312-1.1133 1.9336-1.582 2.9453-0.26953 0.58594-0.37891 0.86328-0.62891 1.457-0.50781 1.2812-0.94922 2.5859-1.3828 3.8906-0.34375 1.0547-0.69531 2.1094-1.0352 3.168-0.27734 0.87109-0.48438 1.7578-0.63672 2.6562-0.10547 0.58594-0.11719 1.1797-0.10547 1.7734 0.007812 0.19922 0.027343 0.39453 0.054687 0.59375-0.70312-0.29297-1.375-0.64844-2.0586-0.98438-1.2852-0.65234-2.5586-1.332-3.8359-1.9961-1.5391-0.82422-3.0742-1.6523-4.625-2.4492-1.6562-0.85156-3.3203-1.6836-4.9961-2.5-1.7148-0.84375-3.4258-1.6836-5.1602-2.4883-1.6367-0.76953-3.2773-1.5234-4.9102-2.3047-1.4141-0.68359-2.8125-1.4023-4.1914-2.1562-1.0664-0.59766-2.1367-1.1992-3.1562-1.8711-0.67578-0.46875-1.3359-0.95703-2.0156-1.4258-0.35547-0.22656-0.71875-0.44141-1.1133-0.59766-0.015625-0.007812-0.03125-0.011719-0.050781-0.015625-0.003906-0.003906 0.007813 0.015625-0.015625-0.019531-0.035156-0.027344-0.050781-0.10156-0.0625-0.12891-0.054688-0.14844-0.10156-0.30078-0.14453-0.45703-0.13672-0.54688-0.23828-1.0977-0.32422-1.6562-0.125-0.82422-0.23438-1.6523-0.29297-2.4883-0.0625-1.0703-0.070312-2.1445 0.046875-3.2148 0.14062-1.2656 0.34766-2.5039 0.73047-3.7227 0.070313-0.21484 0.13281-0.43359 0.20703-0.64453 0.38281-1.1328 0.875-2.2266 1.4609-3.2695 0.12109-0.20703 0.23828-0.41406 0.36719-0.61719 0.60156-0.96094 1.3047-1.8594 2.0859-2.6797 0.65234-0.65625 1.3242-1.3008 2.1094-1.8008 0.085937-0.050782 0.17188-0.10156 0.26172-0.15234 0.10938-0.003906 0.22266-0.023438 0.34375-0.074219 0.21875-0.082031 0.43359-0.17969 0.64063-0.28516 0.019531-0.007813 0.039062-0.019531 0.058593-0.03125 0.10547-0.050781 0.21094-0.10547 0.31641-0.15625 0.51953-0.27344 1.0312-0.56641 1.543-0.85547 0.42969-0.25 0.87109-0.47266 1.3203-0.67969 0.23828-0.10156 0.46875-0.22266 0.71484-0.31641 0.16016-0.046875 0.31641-0.10938 0.46875-0.17969 0.14063-0.070313 0.066407-0.03125 0.23438-0.125 0.23828-0.14062 0.375-0.32812 0.42969-0.52344 0.46875 0.17969 0.93359 0.36719 1.3945 0.55469 0.64453 0.26953 1.2891 0.54297 1.9258 0.83203 0.42187 0.19922 0.83984 0.41406 1.2656 0.60547 0.082032 0.039062 0.16797 0.074219 0.25391 0.11328 0.050781 0.050781 0.10938 0.097656 0.17969 0.14062 0.14062 0.10547 0.28906 0.20312 0.4375 0.29688 0.019532 0.011719 0.28516 0.19141 0.14062 0.097656 0.074219 0.058594 0.15234 0.10938 0.23438 0.15234 0.089844 0.046875 0.17969 0.074219 0.27734 0.089844 0.035156 0.015625 0.0625 0.03125 0.089844 0.039062h0.011718c-0.050781 0.32422-0.10156 0.64844-0.14062 0.97656-0.019532 0.22656-0.042969 0.46094 0.003906 0.6875 0.015625 0.066406 0.042968 0.13281 0.0625 0.19922 0.0625 0.16406 0.15625 0.28516 0.25781 0.37891 0.066406 0.14453 0.17578 0.28516 0.35156 0.39844 0.30078 0.21094 0.61719 0.39062 0.94141 0.5625 0.41016 0.20703 0.84375 0.35938 1.2656 0.53125 0.28516 0.10938 0.55469 0.25 0.82031 0.39844-0.042968 0.09375-0.074218 0.19922-0.089843 0.32031-0.046875 0.28906-0.054688 0.58594-0.046875 0.87891 0.019531 0.40234 0.13672 0.78516 0.28906 1.1562 0.13281 0.33594 0.32031 0.64453 0.52344 0.94141 0.33984 0.58203 0.69922 0.92578 1.3672 1.1523-0.30078-1.0469-0.32812-1.5117-0.30859-2.3203 0.058593-0.54297 0.027343-1.2695 0.42187-0.96094 0.12109 0.0625 0.32031-0.027344 0.44531-0.035157 0.32812-0.125 0.65234-0.25781 0.97656-0.39062 0.48437-0.19531 0.97656-0.37109 1.4609-0.57422 0.32422-0.13672 0.64062-0.28516 0.96094-0.4375 0.39063 0.25 0.71484 0.26172 1.0664 0.53516 0.32031 0.10547 0.63672 0.21094 0.95703 0.31641 0.54297 0.17578 1.0859 0.35938 1.6172 0.55859 0.78516 0.29297 1.5586 0.61328 2.3359 0.92188 1.0078 0.40234 2.0234 0.80078 3.0391 1.1875 1.1133 0.42578 2.2383 0.81641 3.3555 1.2266 1.0664 0.39062 2.1289 0.78125 3.1992 1.1602 0.94141 0.32812 1.8828 0.65625 2.8164 1 0.71484 0.25781 1.4297 0.51172 2.1445 0.76953 0.4375 0.16016 0.875 0.33203 1.3086 0.5 0.15234 0.0625 0.074219 0.03125 0.22656 0.09375 1.1055 0.44922 1.7383-1.1133 0.63281-1.5625-0.15234-0.0625-0.070312-0.027344-0.25391-0.10156-0.44531-0.17188-0.89062-0.34766-1.3398-0.51172-0.71094-0.25781-1.4297-0.51172-2.1406-0.76953-0.94141-0.34375-1.8867-0.67578-2.832-1.0039-1.0625-0.375-2.125-0.76562-3.1836-1.1523-1.1133-0.40625-2.2305-0.79688-3.3359-1.2188-1.0078-0.38281-2.0156-0.77734-3.0156-1.1758-0.78516-0.3125-1.5664-0.63672-2.3594-0.93359-0.55859-0.21094-1.125-0.40234-1.6914-0.58594-0.26563-0.085938-0.53516-0.17578-0.80078-0.26562 0.058594-0.59375 0.10547-1.1914 0.16016-1.7891 0.074219-0.83594 0.14453-1.668 0.19141-2.5039 0.027343-0.55859 0.046875-1.1172 0.074219-1.6758 0.007812-0.11719-0.003907-0.21875-0.027344-0.31641 0.21094-0.046874 0.41797-0.097656 0.62891-0.14844 0.15625-0.039063 0.28516-0.10547 0.38672-0.1875 0.27734 0.097656 0.55469 0.19922 0.83594 0.30078 1.7852 0.60547 3.5781 1.1758 5.3789 1.7422 1.6133 0.49219 3.207 1.0391 4.7891 1.625 1.3164 0.48438 2.6172 1.0039 3.918 1.5195 1.0391 0.41406 2.0898 0.80078 3.1445 1.1719 0.74219 0.24219 1.7578 0.85547 1.9102-0.13281 0.023438-0.25781 0.027344-0.51953 0.035157-0.78125 0.011718-0.41016 0.035156-0.82031 0.066406-1.2266 0.039062-0.45312 0.085937-0.90234 0.125-1.3555 0.023437-0.37891 0.0625-0.75781 0.10547-1.1328 0.027344-0.26953 0.078126-0.53125 0.15625-0.78906 0.19531-2.6445-0.40625-3.0195-1.3359-3.2734-0.94531-0.37109-1.9023-0.70312-2.8555-1.0469-1.2734-0.44531-2.5586-0.86328-3.8438-1.2812-0.50391-0.16797-0.90625-0.30078-1.4102-0.47656-0.99609-0.35156-1.9844-0.73438-2.9766-1.0938-1.6055-0.58203-3.2148-1.1523-4.8555-1.6172-1.6523-0.48047-3.3125-0.92969-4.9648-1.3984-1.4844-0.43359-2.9609-0.89453-4.4453-1.3203-1.168-0.33594-2.3398-0.66016-3.5117-0.98438-0.69922-0.20312-1.3984-0.41797-2.0703-0.70312-0.3125-0.125-0.62891-0.25391-0.9375-0.39453-0.13281-0.066407-0.26172-0.10156-0.38281-0.10938-0.17188-0.011718-0.32031 0.035157-0.45312 0.11328-0.12891-0.035156-0.26172-0.070313-0.39453-0.089844-0.28125-0.054688-0.5625-0.09375-0.84766-0.10156-0.3125-0.019532-0.625-0.039063-0.9375-0.054688-0.43359-0.027344-0.86719-0.042969-1.3008-0.03125zm10.121 10.434c0.72656 0.26953 1.4531 0.53516 2.1836 0.80078 0.69141 0.25391 1.3867 0.49609 2.0781 0.74609-0.26953 0.082031-0.53906 0.16406-0.80078 0.25781-0.63672 0.22266-1.2695 0.45703-1.8945 0.69922-0.007812 0.003906-0.011719 0.003906-0.019531 0.007812-1.1758-0.5-1.1406-0.73828-1.9883-0.90625-0.52734-0.11719-1-0.41797-1.5078-0.60547-0.089844-0.035156-0.17578-0.070312-0.26172-0.10547 0.33203-0.11328 0.66406-0.22266 0.99609-0.33203 0.30078-0.078124 0.59375-0.18359 0.87891-0.3125 0.14453-0.066406 0.25391-0.15234 0.33984-0.25zm4.2578 3.3164c-0.023438 0.47656-0.039063 0.94922-0.0625 1.4258-0.046876 0.81641-0.11719 1.6289-0.1875 2.4414-0.03125 0.34375-0.0625 0.69141-0.09375 1.0352-0.078126 0.035157-0.16016 0.066407-0.23438 0.10547-0.49609 0.24219-1 0.48047-1.5078 0.69922-0.35156 0.14844-0.71094 0.28125-1.0664 0.41797 0.007812-0.23047 0.015625-0.46094 0.03125-0.6875 0.046875-0.71875 0.10938-1.4336 0.12109-2.1562 0.015624-0.65625 0.039062-1.3086 0.10156-1.9609 0.007812-0.09375 0.023438-0.18359 0.03125-0.27734 0.26172-0.089844 0.52344-0.17969 0.78516-0.27734 0.61328-0.23828 1.2266-0.46875 1.8477-0.68359 0.082032-0.027344 0.16406-0.050781 0.24219-0.078125zm-12.555 9.3359c-0.33984-0.003906-0.60938 0.074219-0.85547 0.30859-0.17188 0.17188-0.30469 0.37109-0.35938 0.60938-0.050781 0.23828-0.046875 0.48047 0.054688 0.70312 0.0625 0.16016 0.13672 0.3125 0.19922 0.47266 0.085938 0.21094 0.18359 0.41406 0.27344 0.62109 0.042969 0.074219 0.066406 0.15625 0.085938 0.24219 0.042968 0.14453 0.007812 0.30859 0.015624 0.45703 0 0.042969 0.003907 0.023437 0.003907 0.042969-0.003907 0-0.003907 0.003906-0.007813 0.003906-0.19141 0.066406-0.39844 0.074218-0.60156 0.085937-0.24609 0.007813-0.49219-0.003906-0.73438-0.050781-0.29688-0.0625-0.58984-0.14062-0.87891-0.23047-0.45703-0.11328-0.86328-0.15234-1.3203 0.007813-0.070312 0.03125-0.14453 0.058594-0.21094 0.09375-0.28516 0.14453-0.53125 0.35547-0.75 0.58594-0.24609 0.28906-0.45703 0.60938-0.53906 0.98438-0.011719 0.074219-0.027344 0.14453-0.03125 0.21875-0.015625 0.37891 0.13281 0.72266 0.40234 0.98047 0.19141 0.17578 0.37891 0.35547 0.57031 0.53125 0.23828 0.23047 0.48438 0.45703 0.71484 0.69531 0.23438 0.26172 0.42578 0.55859 0.55859 0.88672 0.12109 0.30859 0.23828 0.61719 0.26953 0.94922 0.011719 0.10547 0.011719 0.21094 0.015625 0.31641 0 0.015625 0.015625 0 0.015625 0 0.003906-0.003906 0.007813-0.011719 0.015625-0.011719 0.019531-0.003906-0.019531 0.035157-0.035156 0.050782-0.054688 0.066406-0.13281 0.10547-0.20703 0.14844-0.25391 0.14453-0.53906 0.23047-0.82422 0.27734-0.36328 0.042969-0.72656 0.054687-1.0938 0.054687-0.38281 0.011719-0.76953 0.03125-1.1445 0.13672-0.34766 0.10547-0.64062 0.24219-0.92969 0.46875-0.27344 0.22266-0.51172 0.47656-0.68359 0.78516-0.078125 0.16406-0.10938 0.21094-0.16016 0.39844-0.066406 0.25391-0.058594 0.51953-0.023437 0.77734 0.066406 0.39453 0.17578 0.78516 0.37891 1.1328 0.20703 0.33984 0.46094 0.64453 0.79688 0.86719 0.26953 0.17578 0.55469 0.32031 0.82812 0.48438 0.23828 0.15234 0.47266 0.3125 0.71094 0.46094 0.30469 0.19141 0.59375 0.19141 0.82812 0.085938 0.0625 0.035156 0.12891 0.070312 0.19141 0.10156 0.66016 0.35547 1.332 0.68359 2.0039 1.0195 0.67188 0.32422 1.3438 0.65234 2.0195 0.97266 0.42969 0.20703 0.85547 0.41406 1.2656 0.65625 1.0312 0.60156 1.8828-0.85547 0.85156-1.457-0.12891-0.074219-0.25781-0.14063-0.39063-0.21094-0.03125-0.21094-0.12891-0.41406-0.32031-0.54688-0.042969-0.33203 0.003906-0.66797 0.042969-0.99609 0.09375-0.60156 0.21094-1.1992 0.39062-1.7852 0.24609-0.77734 0.53125-1.543 0.89062-2.2773 0.44141-0.93359 0.91406-1.8477 1.4688-2.7188 0.22656-0.35156 0.33594-0.53125 0.57812-0.86328 0.35938-0.49609 0.75781-0.96094 1.1641-1.418 0.42578-0.48047 0.85547-0.95312 1.3125-1.4023 0.20312-0.19141 0.40625-0.38672 0.64062-0.53906 1.043-0.57812 0.22266-2.0547-0.82031-1.4766-0.36719 0.21484-0.68359 0.5-0.98828 0.79297-0.49219 0.48047-0.95313 0.98828-1.4102 1.5039-0.43359 0.49219-0.85938 0.98828-1.2461 1.5195-0.28125 0.38672-0.39063 0.56641-0.64844 0.96484-0.59766 0.93359-1.1055 1.9141-1.5781 2.9141-0.39062 0.80469-0.70312 1.6406-0.97266 2.4922-0.20703 0.66406-0.34375 1.3477-0.45312 2.0352-0.042969 0.26562-0.066406 0.53516-0.074219 0.80469-0.32422-0.15625-0.65234-0.3125-0.97656-0.46875-0.66406-0.33203-1.332-0.66016-1.9844-1.0117-0.38281-0.19531-0.75781-0.40625-1.1406-0.60547-0.23828-0.11719-0.46094-0.13281-0.64844-0.082031-0.20703-0.11719-0.41797-0.22266-0.61328-0.35938-0.12109-0.082031-0.20703-0.19922-0.27734-0.32422-0.09375-0.16797-0.13281-0.34766-0.16406-0.53516 0.007812-0.03125-0.03125-0.11719 0-0.15234 0.019531-0.023438-0.023438 0.078125 0.023437 0.003906 0.003906 0 0.007813 0 0.011719-0.003906 0.070312-0.082032 0.12891-0.15625 0.21484-0.21875 0.082031-0.046875 0.15625-0.11328 0.25-0.14453 0.039062-0.011718 0.078124-0.019531 0.11719-0.03125 0.23438-0.054687 0.47656-0.058593 0.71484-0.066406 0.41406 0 0.82812-0.019531 1.2383-0.066406 0.51172-0.074219 0.96484-0.22656 1.418-0.46484 0.31641-0.17188 0.61328-0.39844 0.8125-0.69922 0.042969-0.066407 0.074219-0.13672 0.11328-0.20313 0.18359-0.39062 0.17969-0.8125 0.14453-1.2344-0.042969-0.49609-0.20312-0.96094-0.38281-1.4219-0.19922-0.51172-0.5-0.96484-0.85547-1.3789-0.25781-0.28125-0.54297-0.53906-0.81641-0.80469-0.11719-0.10938-0.23438-0.21875-0.35156-0.32812 0.019531-0.023438 0.039063-0.046875 0.0625-0.070313 0.09375-0.074219 0.19141-0.19531 0.31641-0.21484 0 0.003906-0.003907 0.007812 0 0.011718 0.023437 0.007813 0.046874 0 0.070312 0.007813 0.066406 0.011719 0.13281 0.03125 0.19922 0.050781 0.3125 0.09375 0.62891 0.17578 0.94531 0.24219 0.375 0.078124 0.76172 0.097656 1.1445 0.085937 0.35156-0.007813 0.69531-0.058594 1.0312-0.15625 0.25391-0.09375 0.51172-0.21094 0.71484-0.39844 0.054688-0.050782 0.10156-0.10547 0.15234-0.15625 0.24609-0.29297 0.3125-0.64844 0.33203-1.0156 0.015625-0.28125 0.003907-0.5625-0.039062-0.83984-0.042969-0.24219-0.13281-0.47266-0.23828-0.69141-0.015626-0.039062-0.035157-0.074218-0.050782-0.11328 0.089844 0.019531 0.18359 0.035157 0.27344 0.054688 0.3125 0.082031 0.625 0.14062 0.94141 0.19922 0.34375 0.0625 0.69141 0.082031 1.0352 0.10937 0.28516 0.035157 0.56641 0.085938 0.84375 0.14844 0.32812 0.082031 0.66797 0.10156 1.0039 0.0625 0.039063-0.007812 0.078126-0.015625 0.12109-0.019531 1.1719-0.22266 0.85938-1.8789-0.3125-1.6562-0.003906 0-0.007812 0.003906-0.011718 0.003906-0.15234 0.023437-0.30078-0.003906-0.44922-0.039063-0.34766-0.074218-0.69531-0.14062-1.0469-0.17578-0.29297-0.027343-0.58984-0.039062-0.88281-0.089843-0.29688-0.054688-0.58984-0.11328-0.87891-0.1875-0.27344-0.058594-0.54688-0.12109-0.82422-0.16797-0.19531-0.03125-0.38672-0.09375-0.58594-0.09375zm14.262 5.2812c-0.37109 0.023438-0.74219 0.078125-1.0703 0.26172-0.050781 0.035156-0.10938 0.0625-0.15234 0.10547-0.30469 0.29688-0.40234 0.55859-0.31641 0.97266 0.03125 0.15234 0.078125 0.29688 0.10547 0.44922 0.050781 0.28516 0.082031 0.57812 0.16797 0.85547 0.070312 0.19141 0.14844 0.37891 0.24609 0.55859 0.011718 0.027344 0.015624 0.054688 0.027343 0.082031-0.011719 0.027344-0.015625 0.0625-0.035156 0.082032-0.16016 0.14062-0.35938 0.21875-0.56641 0.25781-0.33984 0.070313-0.68359 0.10938-1.0312 0.11328-0.48438 0.011718-0.97266 0.035156-1.4375 0.18359-0.089844 0.035157-0.17969 0.0625-0.26562 0.10156-0.35938 0.16016-0.67969 0.40625-0.95312 0.68359-0.26953 0.30859-0.50781 0.64453-0.55078 1.0664-0.027344 0.30859 0.003906 0.60938 0.14062 0.89062 0.11719 0.26172 0.26563 0.49609 0.4375 0.72656 0.085938 0.125 0.17188 0.24609 0.23438 0.38281 0.058593 0.21484 0.11328 0.43359 0.15625 0.65234 0.039062 0.23437 0.070312 0.46875 0.089843 0.70312 0.019531 0.16797 0.035157 0.33984 0.054688 0.50781 0 0.007813-0.007813 0.089844 0 0.11719-0.17969 0.09375-0.38281 0.10938-0.58203 0.14063-0.32031 0.03125-0.64453 0.027343-0.96484 0.027343-0.35547 0.003907-0.71484 0.011719-1.0664 0.089844-0.36328 0.097656-0.70703 0.23828-1.0078 0.46484-0.36328 0.28906-0.62109 0.57812-0.77734 1.0234-0.14062 0.48828-0.15625 0.85938 0.03125 1.3438 0.17578 0.39844 0.40625 0.76562 0.69141 1.0938 0.28516 0.35156 0.57422 0.69922 0.85156 1.0547 0.21875 0.26953 0.44141 0.53125 0.70703 0.75781 0.019531 0.015625 0.039063 0.027344 0.058594 0.039063 0.097656 0.097656 0.22266 0.17969 0.39062 0.23438 0.28125 0.10156 0.54688 0.23438 0.8125 0.375 0.49609 0.25781 0.98438 0.53125 1.4766 0.79297 0.55859 0.28906 1.1094 0.59375 1.6641 0.89063 0.46094 0.25 0.91406 0.51172 1.3633 0.78125 0.19141 0.11328 0.38281 0.22656 0.57031 0.33984 0.42578 0.25781 0.81641 0.14844 1.0625-0.10156 0.41406-0.082031 0.76562-0.45703 0.64844-1.0391-0.085937-0.36328-0.10156-0.74219-0.10938-1.1133 0.003907-0.66797 0.050781-1.332 0.16016-1.9922 0.082031-0.42969 0.1875-0.85938 0.33984-1.2695 0.082031-0.22266 0.16406-0.39453 0.26172-0.60938 0.32812-0.6875 0.70312-1.3516 1.0938-2.0039 0.375-0.62109 0.82031-1.1914 1.2812-1.75 0.37891-0.44922 0.77734-0.88281 1.1719-1.3203 0.32812-0.36719 0.67188-0.71484 1.0195-1.0625 0.03125-0.03125 0.066406-0.0625 0.10156-0.09375 0.0625-0.039062 0.125-0.089843 0.1875-0.14844 0.039062-0.039063 0.070312-0.085937 0.10938-0.12891 0.058594-0.054688 0.11719-0.10938 0.17578-0.16406 0.16797-0.14062 0.29297-0.31641 0.39844-0.50781h0.003907c0.003906-0.007813 0.007812-0.015625 0.011719-0.027344 0.042968-0.050781 0.078124-0.10156 0.12109-0.14844 0.09375-0.078124 0.1875-0.16016 0.27734-0.24219 0.078125-0.070313 0.15234-0.14062 0.22656-0.21094 0.03125-0.007813 0.070312-0.027344 0.10547-0.039063 0.65234-0.10938 0.85547-0.74609 0.63672-1.1992 0.03125-0.35547-0.14062-0.73047-0.62109-0.88281-0.3125-0.097656-0.16016-0.054688-0.46094-0.13672-0.42969-0.11328-0.86719-0.21094-1.2891-0.35547-0.41406-0.14062-0.82422-0.28906-1.2148-0.48047-0.33984-0.16797-0.67188-0.35547-0.96875-0.59375-0.25-0.20313-0.48438-0.42188-0.71875-0.64844-0.17969-0.17969-0.375-0.26172-0.5625-0.28125-0.097657-0.027344-0.20703-0.046875-0.32813-0.042969-0.41016 0.019531-0.73047-0.03125-1.1055-0.21094-0.48438-0.20312-0.98047-0.40625-1.5117-0.40625zm0.26953 1.7422c0.19922 0.058594 0.39844 0.13672 0.58984 0.21875 0.46094 0.20312 0.94922 0.33203 1.4531 0.34375 0.0625 0 0.12891 0 0.19141-0.003906 0.21484 0.20312 0.42969 0.40625 0.66016 0.59375 0.39062 0.31641 0.83203 0.56641 1.2773 0.79297 0.45703 0.22656 0.94141 0.40234 1.4219 0.56641 0.19531 0.066407 0.39453 0.125 0.58984 0.17578-0.0625 0.054687-0.12891 0.10938-0.18359 0.16797-0.13281 0.14844-0.26172 0.30078-0.38281 0.46094-0.089844 0.10938-0.17969 0.21875-0.26953 0.32422-0.13281 0.12109-0.26562 0.24219-0.39453 0.37109-0.36719 0.36719-0.72656 0.73438-1.0742 1.1172-0.41406 0.45312-0.82422 0.90625-1.2227 1.375-0.51562 0.625-1.0156 1.2656-1.4336 1.9648-0.42188 0.71094-0.82812 1.4336-1.1836 2.1797-0.13281 0.29688-0.20703 0.44922-0.31641 0.75781-0.18359 0.5-0.3125 1.0195-0.41016 1.543-0.12109 0.75781-0.17969 1.5273-0.17969 2.2969 0 0.074218 0.007813 0.14844 0.011719 0.22266-0.35156-0.20703-0.70312-0.41406-1.0625-0.60938-0.55859-0.30078-1.1133-0.60547-1.6758-0.89844-0.49609-0.26172-0.98047-0.53516-1.4766-0.79297-0.30469-0.16016-0.61328-0.30859-0.9375-0.42969-0.003907-0.003906-0.003907-0.003906-0.007813-0.007813-0.1875-0.15625-0.34375-0.34766-0.49609-0.53906-0.27734-0.35547-0.56641-0.70312-0.85156-1.0547-0.17969-0.21875-0.35156-0.44141-0.45703-0.70703-0.027344-0.074219 0.007812-0.10547 0.035156-0.17578 0.042968-0.078125 0.11719-0.12891 0.1875-0.17969 0.11719-0.085937 0.25-0.14062 0.39062-0.16797 0.22266-0.039063 0.45312-0.039063 0.67578-0.039063 0.36719 0.003907 0.73438-0.003906 1.1016-0.035156 0.24609-0.035156 0.49609-0.066406 0.73438-0.13672 0.19141-0.058594 0.21484-0.074218 0.39062-0.15234 0.29688-0.14844 0.57422-0.35937 0.74609-0.64844 0.039063-0.0625 0.066406-0.13281 0.10156-0.19922 0.11719-0.29297 0.14062-0.60156 0.12891-0.91016-0.023437-0.20312-0.042969-0.40625-0.066406-0.60938-0.019531-0.25781-0.058594-0.51562-0.10156-0.76953-0.050781-0.27734-0.11719-0.55078-0.19141-0.82422-0.097656-0.32422-0.27734-0.60938-0.46484-0.88672-0.089844-0.14844-0.21875-0.27344-0.27734-0.4375-0.003906-0.011718-0.007812-0.023437-0.015624-0.035156-0.007813-0.015625-0.015626-0.03125-0.019532-0.046875 0-0.003906 0.003906 0.003906 0.007813 0.003906 0.003906 0 0.003906-0.007812 0.007812-0.003906 0.003907 0.015625 0 0.03125 0.007813 0.046875 0.003906 0.007812 0.003906-0.015625 0.003906-0.023438 0-0.003906 0.003906-0.011718 0.003906-0.007812 0.003906 0.011719-0.007812 0.046875 0.003906 0.039062 0.03125-0.019531 0.085938-0.10156 0.11719-0.13281 0.15625-0.14844 0.33203-0.26953 0.53906-0.32812 0.29688-0.074219 0.60156-0.078125 0.90625-0.085937 0.44531-0.003907 0.89063-0.058594 1.3242-0.14453 0.38281-0.078125 0.75-0.21875 1.0781-0.4375 0.0625-0.042968 0.12109-0.089844 0.17969-0.13281 0.33984-0.27734 0.52734-0.60547 0.65625-1.0156 0.09375-0.36328 0.035156-0.69531-0.082032-1.043-0.066406-0.19141-0.18359-0.35547-0.24219-0.55078-0.023437-0.11719-0.042969-0.23438-0.058594-0.35156zm-1.2344 1.4727c-0.003906 0.019531-0.015625 0.035156-0.023437 0.050781 0-0.027343 0.003906-0.066406 0.023437-0.050781zm9.4336 1.8125c0.054687-0.039062-0.097657 0.089844-0.14844 0.125 0 0-0.003906 0-0.007812 0.003906 0.054687-0.039062 0.10156-0.089844 0.15625-0.12891zm-0.27734 0.16406c-0.019531 0.015626-0.007813 0.007813-0.003906 0.003907-0.023438 0.011719-0.042969 0.019531-0.066407 0.03125-0.015624 0.003906-0.027343 0.011719-0.042968 0.015625 0.003906-0.003906 0.003906-0.003906 0.007812-0.007813 0.035156-0.011719 0.066406-0.027343 0.10156-0.039062zm-0.13281 0.050782-0.007812 0.007812h0.003906c-0.003906 0-0.003906 0.003906-0.007812 0.003906-0.011719 0.007813-0.019532 0.015626-0.03125 0.019532-0.027344 0.011718-0.054688 0.015625-0.085938 0.023437 0.035156-0.011719 0.066406-0.027343 0.10156-0.039062h0.007812 0.003907l0.003906-0.003907c-0.003906 0-0.007813 0.003907-0.011719 0.003907 0.007813-0.003907 0.011719-0.007813 0.019531-0.007813zm-0.066406 0.046875c-0.054687 0.027343-0.10938 0.046875-0.16797 0.0625 0.039062-0.011719-0.09375 0.019531-0.074219 0.011719 0.039062-0.015626 0.082031-0.03125 0.12109-0.046876 0.027344-0.003906 0.070313-0.015624 0.11719-0.027343zm-12.633 4.3945c-0.003906 0.015625-0.03125 0.03125-0.054688 0.046875 0.007813-0.011719 0.015625-0.023437 0.035156-0.035156 0.007813-0.003907 0.023438-0.019531 0.023438-0.011719zm-8.6211 1.2969c0 0.003906 0.003906 0.003906 0.007812 0.011719 0.042969 0.09375 0.007813 0.035156-0.003906-0.003906 0-0.003907 0-0.003907-0.003906-0.007813z" fill="#fff"/>
 </g>
</svg>
