<?xml version="1.0" encoding="UTF-8"?>
<svg width="100pt" height="100pt" version="1.1" viewBox="0 0 100 100" xmlns="http://www.w3.org/2000/svg">
 <g>
  <path d="m100 50c0 27.613-22.387 50-50 50s-50-22.387-50-50 22.387-50 50-50 50 22.387 50 50" fill="#ffc93f"/>
  <path d="m70.664 72.633h1.9688v1.9688h-1.9688z"/>
  <path d="m74.602 72.633h1.9688v1.9688h-1.9688z"/>
  <path d="m77.551 49.016h-0.98438v-17.711c0-1.0859-0.88281-1.9688-1.9688-1.9688h-3.9375l0.003906-3.9375c0-3.2578-2.6484-5.9023-5.9023-5.9023h-31.488c-3.2578 0-5.9023 2.6484-5.9023 5.9023v11.809h9.8398v3.9375h-4.9219v2.0234c0 0.76562-0.45703 1.4492-1.2031 1.7578-0.71484 0.29688-1.5234 0.14062-2.0703-0.40234l-1.4297-1.4336-4.1797 4.1758 1.4336 1.4336c0.54297 0.54297 0.69922 1.3555 0.38672 2.1055-0.29297 0.70703-0.97656 1.1641-1.7422 1.1641h-2.0195v5.9023h2.0234c0.76562 0 1.4492 0.45703 1.7578 1.2031 0.29688 0.71484 0.14062 1.5273-0.40234 2.0703l-1.4375 1.4297 4.1523 4.1523h-1.1758c-3.7969 0-6.8867 3.0898-6.8867 6.8867s3.0898 6.8867 6.8867 6.8867h27.75l4.7227-1.9688 18.695 0.003906c1.6289 0 2.9531-1.3242 2.9531-2.9531v-23.613c0-1.6289-1.3242-2.9531-2.9531-2.9531zm0.98438 2.9531v4.9219l-35.422-0.003906v-8.8555c0-0.54297 0.44141-0.98438 0.98438-0.98438h16.496c0.375 0 0.71094 0.20703 0.87891 0.54297l1.6953 3.3945h14.383c0.54297 0 0.98438 0.44141 0.98438 0.98438zm-14.078 21.191c0.18359 0.078125 0.30469 0.25781 0.30469 0.45703 0 0.19922-0.11719 0.37891-0.30469 0.45312l-2.6484 1.1055v-3.1172zm-4.6172 2.8359-4.9219 2.0469v-8.8555l4.9219 2.0508zm-28.535-7.3008v9.8398h-1.9688v-9.8398zm1.9688 5.9062h19.68v3.9375l-19.68-0.003906zm19.68-1.9688h-19.68v-3.9375h19.68zm-15.746-19.898c-0.52344-0.47266-1.2109-0.76562-1.9688-0.76562-1.6289 0-2.9531 1.3242-2.9531 2.9531s1.3242 2.9531 2.9531 2.9531c0.75781 0 1.4453-0.29688 1.9688-0.76562v2.3203c-0.61719 0.26562-1.2852 0.41016-1.9688 0.41016-2.7148 0-4.9219-2.207-4.9219-4.9219 0-2.7148 2.207-4.9219 4.9219-4.9219 0.67969 0 1.3516 0.14453 1.9688 0.41797zm-0.98438 2.1836c0 0.54297-0.44141 0.98438-0.98438 0.98438s-0.98438-0.44141-0.98438-0.98438 0.44141-0.98438 0.98438-0.98438c0.54297 0.003906 0.98438 0.44141 0.98438 0.98438zm38.379-5.9023h-10.219l-1.1523-2.3047c-0.5-1.0078-1.5156-1.6328-2.6406-1.6328h-13.543v-13.773h27.551zm-5.9062-23.617v3.9375h-21.648c-1.0859 0-1.9688 0.88281-1.9688 1.9688v13.777h-0.98438c-1.6289 0-2.9531 1.3242-2.9531 2.9531v18.695h-1.9688l0.003906-41.332c0-1.5117-0.57812-2.8906-1.5156-3.9375l27.102 0.003906c2.168 0 3.9336 1.7656 3.9336 3.9336zm-39.359 9.8398v-9.8398c0-2.1719 1.7656-3.9375 3.9375-3.9375 2.1719 0 3.9375 1.7656 3.9375 3.9375v9.8398zm-2.2891 23.047c-0.59766-1.4453-1.9961-2.3828-3.5625-2.3828h-0.050781v-1.9688h0.054687c1.5664 0 2.9609-0.93359 3.5742-2.4141 0.60547-1.4531 0.28125-3.1094-0.82812-4.2188l-0.042969-0.035156 1.3945-1.3945 0.042968 0.042968c1.1094 1.1094 2.7656 1.4336 4.25 0.8125 1.4453-0.59766 2.3828-1.9961 2.3828-3.5586l-0.007813-0.054688h2.9531v5.2188c-0.63672-0.19141-1.2969-0.30078-1.9688-0.30078-3.7969 0-6.8867 3.0898-6.8867 6.8867s3.0898 6.8867 6.8867 6.8867c0.67188 0 1.332-0.10547 1.9688-0.29688v5.2188h-2.9531v-0.054687c0-1.5664-0.93359-2.9609-2.4141-3.5742-1.457-0.60547-3.1094-0.28125-4.2188 0.82812l-0.035156 0.042969-1.3945-1.3945 0.042969-0.042969c1.1055-1.1055 1.4297-2.7617 0.8125-4.2461zm1.9688 7.0352c0.54297-0.54297 1.3516-0.70312 2.1055-0.38672 0.71094 0.29297 1.168 0.97266 1.168 1.7383v0.054687h-4.6797zm-7.5508 8.2969c0-2.7148 2.207-4.9219 4.9219-4.9219h0.98438v9.8398h-0.98828c-2.7109 0-4.918-2.207-4.918-4.918zm56.086 2.9492h-13.973l1.6367-0.67969c0.91797-0.38281 1.5117-1.2734 1.5117-2.2695 0-0.99609-0.59375-1.8867-1.5117-2.2695l-11.082-4.6211h-11.02v-7.8711h35.426v16.727c-0.003906 0.54688-0.44531 0.98438-0.98828 0.98438z"/>
  <path d="m45.078 54.918h13.777v-5.9023h-13.777zm5.9062-1.9648v-1.9688h1.9688v1.9688zm5.9023 0h-1.9688v-1.9688h1.9688zm-9.8398-1.9688h1.9688v1.9688h-1.9688z"/>
  <path d="m72.633 33.273h-11.809v9.8398h11.809zm-1.9688 7.8711h-7.8711v-5.9023h7.8711z"/>
  <path d="m49.016 33.273h5.9023v1.9688h-5.9023z"/>
  <path d="m49.016 37.207h9.8398v1.9688h-9.8398z"/>
  <path d="m56.887 33.273h1.9688v1.9688h-1.9688z"/>
  <path d="m49.016 41.145h9.8398v1.9688h-9.8398z"/>
 </g>
</svg>
