<?xml version="1.0" encoding="UTF-8"?>
<svg width="100pt" height="100pt" version="1.1" viewBox="0 0 100 100" xmlns="http://www.w3.org/2000/svg">
 <g>
  <path d="m100 50c0 27.613-22.387 50-50 50s-50-22.387-50-50 22.387-50 50-50 50 22.387 50 50" fill="#ffc93f"/>
  <path d="m69.488 50.098c0-0.88281-0.71484-1.5977-1.5977-1.5977s-1.5977 0.71484-1.5977 1.5977c0 8.9844-7.3086 16.293-16.297 16.293-8.9805 0-16.293-7.3086-16.293-16.293 0-0.88281-0.71484-1.5977-1.5977-1.5977-0.88281 0-1.5977 0.71484-1.5977 1.5977 0 10.207 7.8906 18.602 17.895 19.418v5.6289h-5.3867c-0.88281 0-1.5977 0.71484-1.5977 1.5977 0 0.88281 0.71484 1.5977 1.5977 1.5977h13.973c0.88281 0 1.5977-0.71484 1.5977-1.5977 0-0.88281-0.71484-1.5977-1.5977-1.5977h-5.3867v-5.6289c9.9961-0.81641 17.887-9.2109 17.887-19.418z"/>
  <path d="m50 64.477c7.9297 0 14.379-6.4492 14.379-14.379v-14.059c0-7.9297-6.4492-14.379-14.379-14.379s-14.379 6.4492-14.379 14.379v14.059c0 7.9258 6.4492 14.379 14.379 14.379zm-11.184-28.438c0-6.1641 5.0156-11.184 11.184-11.184 5.625 0 10.281 4.1797 11.055 9.5898-0.019532 0-0.039063-0.003906-0.058594-0.003906h-6.8164c-0.88281 0-1.5977 0.71484-1.5977 1.5977 0 0.88281 0.71484 1.5977 1.5977 1.5977h6.8164c0.0625 0 0.125-0.011719 0.18359-0.019531v3.8711c-0.0625-0.007812-0.12109-0.019531-0.18359-0.019531h-6.8164c-0.88281 0-1.5977 0.71484-1.5977 1.5977 0 0.88281 0.71484 1.5977 1.5977 1.5977h6.8164c0.0625 0 0.125-0.011718 0.18359-0.019531v3.8711c-0.0625-0.007813-0.12109-0.019531-0.18359-0.019531l-6.8164 0.003906c-0.88281 0-1.5977 0.71484-1.5977 1.5977 0 0.88281 0.71484 1.5977 1.5977 1.5977h6.8164c0.019531 0 0.039062-0.003906 0.058594-0.003906-0.77734 5.4141-5.4336 9.5898-11.055 9.5898-6.1641 0-11.184-5.0156-11.184-11.184z"/>
 </g>
</svg>
