<?xml version="1.0" encoding="UTF-8"?>
<svg width="100pt" height="100pt" version="1.1" viewBox="0 0 100 100" xmlns="http://www.w3.org/2000/svg">
 <g>
  <path d="m100 50c0 27.613-22.387 50-50 50s-50-22.387-50-50 22.387-50 50-50 50 22.387 50 50" fill="#ffc93f"/>
  <path d="m74.113 76.098c-0.32422 0.48438-0.49609 1.0547-0.49609 1.6367v2.7695h1.9688l-0.003907-2.7695c0-0.19531 0.058594-0.38672 0.16797-0.54688l1.4727-2.207c0.21484-0.32422 0.32812-0.70312 0.32812-1.0938v-8.5938c0-2.1719-1.7617-3.9336-3.9336-3.9375h-0.17188c-0.41797-1.1797-1.5312-1.9648-2.7812-1.9688h-1.1523c-0.41797-1.1758-1.5352-1.9648-2.7852-1.9648h-0.98437v-3.4844c0-1.6328-1.3203-2.9531-2.9492-2.9531-1.6328 0-2.9531 1.3203-2.9531 2.9531v10.371c-1.6289 0-2.9492 1.3203-2.9531 2.9531v6.3555c0 0.51953 0.20703 1.0234 0.57812 1.3906l2.375 2.375v3.1211h1.9688v-3.5273c0-0.26172-0.10547-0.51172-0.28906-0.69531l-2.6641-2.6641v-6.3555c0-0.54297 0.44141-0.98438 0.98438-0.98438v6.3555h1.9688v-18.695c0-0.54688 0.44141-0.98438 0.98438-0.98438s0.98438 0.4375 0.98438 0.98438v4.4688-0.003906c0 0.16016 0.042968 0.31641 0.12109 0.45312h-0.12109v4.4688h1.9688v-3.9375h0.98438-0.003907c0.54297 0.003906 0.98438 0.44141 0.98438 0.98438v4.9219h1.9688v-3.9375h0.98437c0.54297 0 0.98438 0.44141 0.98438 0.98438v4.3867h1.9688v-3.4023c1.0859 0 1.9648 0.88281 1.9648 1.9688v8.5938z"/>
  <path d="m66.727 21.465h-4.918c-0.003906-1.0859-0.88281-1.9688-1.9688-1.9688h-2.9531c-1.0859 0-1.9648 0.88281-1.9688 1.9688h-16.727c0-1.0859-0.88281-1.9688-1.9688-1.9688h-2.9492c-1.0898 0-1.9688 0.88281-1.9688 1.9688h-4.9219c-2.1719 0-3.9336 1.7617-3.9336 3.9336v37.395c0 0.26172 0.10156 0.51172 0.28516 0.69531 0.1875 0.18359 0.4375 0.28906 0.69922 0.28906h33.453v-1.9688h-32.473v-31.488h44.281v25.582h1.9688v-30.504c-0.003906-2.1719-1.7617-3.9336-3.9375-3.9336zm-9.8398 0h2.9531v3.9375l-2.9531-0.003906zm-23.613 0h2.9531v3.9375l-2.9531-0.003906zm-8.8594 6.8867v-2.9531c0.003907-1.0859 0.88281-1.9648 1.9688-1.9648h4.9219v1.9648c0 1.0859 0.87891 1.9688 1.9688 1.9688h2.9531-0.003906c1.0859 0 1.9688-0.88281 1.9688-1.9688v-1.9648h16.727v1.9648c0.003906 1.0859 0.88281 1.9688 1.9688 1.9688h2.9531c1.0859 0 1.9648-0.88281 1.9688-1.9688v-1.9648h4.9219-0.003907c1.0859 0 1.9688 0.87891 1.9688 1.9648v2.9531z"/>
  <path d="m34.254 33.273c0-0.26172-0.10156-0.51172-0.28516-0.69922-0.1875-0.18359-0.4375-0.28516-0.69531-0.28516h-5.9062c-0.26172 0-0.51172 0.10156-0.69531 0.28516-0.18359 0.1875-0.28906 0.4375-0.28906 0.69922v5.9023c0 0.26172 0.10547 0.51172 0.28906 0.69531s0.43359 0.28906 0.69531 0.28906h5.9062c0.25781 0 0.50781-0.10547 0.69531-0.28906 0.18359-0.18359 0.28516-0.43359 0.28516-0.69531zm-1.9688 4.9219-3.9336-0.003906v-3.9375h3.9375z"/>
  <path d="m45.078 33.273c0-0.26172-0.10156-0.51172-0.28516-0.69922-0.1875-0.18359-0.4375-0.28516-0.69531-0.28516h-5.9062c-0.26172 0-0.51172 0.10156-0.69531 0.28516-0.18359 0.1875-0.28906 0.4375-0.28906 0.69922v5.9023c0 0.26172 0.10547 0.51172 0.28906 0.69531s0.43359 0.28906 0.69531 0.28906h5.9062c0.25781 0 0.50781-0.10547 0.69531-0.28906 0.18359-0.18359 0.28516-0.43359 0.28516-0.69531zm-3.3594 0.98437-2.543 2.543v-2.5469zm-1.1523 3.9375 2.5469-2.5469v2.543z"/>
  <path d="m34.254 43.113c0-0.26172-0.10156-0.51172-0.28516-0.69922-0.1875-0.18359-0.4375-0.28516-0.69531-0.28516h-5.9062c-0.26172 0-0.51172 0.10156-0.69531 0.28516-0.18359 0.1875-0.28906 0.4375-0.28906 0.69922v5.9023c0 0.26172 0.10547 0.51172 0.28906 0.69531 0.18359 0.18359 0.43359 0.28906 0.69531 0.28906h5.9062c0.25781 0 0.50781-0.10547 0.69531-0.28906 0.18359-0.18359 0.28516-0.43359 0.28516-0.69531zm-1.9688 4.9219-3.9336-0.003906v-3.9336h3.9375z"/>
  <path d="m45.078 43.113c0-0.26172-0.10156-0.51172-0.28516-0.69922-0.1875-0.18359-0.4375-0.28516-0.69531-0.28516h-5.9062c-0.26172 0-0.51172 0.10156-0.69531 0.28516-0.18359 0.1875-0.28906 0.4375-0.28906 0.69922v5.9023c0 0.26172 0.10547 0.51172 0.28906 0.69531 0.18359 0.18359 0.43359 0.28906 0.69531 0.28906h5.9062c0.25781 0 0.50781-0.10547 0.69531-0.28906 0.18359-0.18359 0.28516-0.43359 0.28516-0.69531zm-1.9688 4.9219-3.9336-0.003906v-3.9336h3.9375z"/>
  <path d="m33.273 51.969h-5.9062c-0.26172 0-0.51172 0.10156-0.69531 0.28906-0.18359 0.18359-0.28906 0.43359-0.28906 0.69531v5.9023c0 0.26172 0.10547 0.51172 0.28906 0.69531 0.18359 0.18359 0.43359 0.28906 0.69531 0.28906h5.9062c0.25781 0 0.50781-0.10547 0.69531-0.28906 0.18359-0.18359 0.28516-0.43359 0.28516-0.69531v-5.9023c0-0.26172-0.10156-0.51172-0.28516-0.69531-0.1875-0.1875-0.4375-0.28906-0.69531-0.28906zm-2.375 1.9688-2.5469 2.543v-2.543zm-1.1523 3.9375 2.543-2.5469v2.543z"/>
  <path d="m44.098 51.969h-5.9062c-0.26172 0-0.51172 0.10156-0.69531 0.28906-0.18359 0.18359-0.28906 0.43359-0.28906 0.69531v5.9023c0 0.26172 0.10547 0.51172 0.28906 0.69531 0.18359 0.18359 0.43359 0.28906 0.69531 0.28906h5.9062c0.25781 0 0.50781-0.10547 0.69531-0.28906 0.18359-0.18359 0.28516-0.43359 0.28516-0.69531v-5.9023c0-0.26172-0.10156-0.51172-0.28516-0.69531-0.1875-0.1875-0.4375-0.28906-0.69531-0.28906zm-2.375 1.9688-2.5469 2.543v-2.543zm-1.1523 3.9375 2.543-2.5469v2.543z"/>
  <path d="m55.902 33.273c0-0.26172-0.10156-0.51172-0.28516-0.69922-0.1875-0.18359-0.4375-0.28516-0.69922-0.28516h-5.9023c-0.26172 0-0.51172 0.10156-0.69531 0.28516-0.18359 0.1875-0.28906 0.4375-0.28906 0.69922v5.9023c0 0.26172 0.10547 0.51172 0.28906 0.69531 0.18359 0.18359 0.43359 0.28906 0.69531 0.28906h5.9023c0.26172 0 0.51172-0.10547 0.69922-0.28906 0.18359-0.18359 0.28516-0.43359 0.28516-0.69531zm-1.9688 4.9219-3.9336-0.003906v-3.9375h3.9375z"/>
  <path d="m55.902 43.113c0-0.26172-0.10156-0.51172-0.28516-0.69922-0.1875-0.18359-0.4375-0.28516-0.69922-0.28516h-5.9023c-0.26172 0-0.51172 0.10156-0.69531 0.28516-0.18359 0.1875-0.28906 0.4375-0.28906 0.69922v5.9023c0 0.26172 0.10547 0.51172 0.28906 0.69531 0.18359 0.18359 0.43359 0.28906 0.69531 0.28906h5.9023c0.26172 0 0.51172-0.10547 0.69922-0.28906 0.18359-0.18359 0.28516-0.43359 0.28516-0.69531zm-3.3594 0.98438-2.543 2.543v-2.543zm-1.1523 3.9375 2.5469-2.5469v2.543z"/>
  <path d="m58.855 49.016c0 0.26172 0.10547 0.51172 0.28906 0.69531 0.18359 0.18359 0.43359 0.28906 0.69531 0.28906h5.9023c0.26172 0 0.51172-0.10547 0.69922-0.28906 0.18359-0.18359 0.28516-0.43359 0.28516-0.69531v-5.9023c0-0.26172-0.10156-0.51172-0.28516-0.69922-0.1875-0.18359-0.4375-0.28516-0.69922-0.28516h-5.9023c-0.26172 0-0.51172 0.10156-0.69531 0.28516-0.18359 0.1875-0.28906 0.4375-0.28906 0.69922zm1.9688-4.9219h3.9375v3.9375h-3.9375z"/>
  <path d="m54.918 51.969h-5.9023c-0.26172 0-0.51172 0.10156-0.69531 0.28906-0.18359 0.18359-0.28906 0.43359-0.28906 0.69531v5.9023c0 0.26172 0.10547 0.51172 0.28906 0.69531 0.18359 0.18359 0.43359 0.28906 0.69531 0.28906h5.9023c0.26172 0 0.51172-0.10547 0.69922-0.28906 0.18359-0.18359 0.28516-0.43359 0.28516-0.69531v-5.9023c0-0.26172-0.10156-0.51172-0.28516-0.69531-0.1875-0.1875-0.4375-0.28906-0.69922-0.28906zm-0.98438 5.9023h-3.9336v-3.9336h3.9375z"/>
  <path d="m59.84 40.16h5.9023c0.26172 0 0.51172-0.10547 0.69922-0.28906 0.18359-0.18359 0.28516-0.43359 0.28516-0.69531v-5.9023c0-0.26172-0.10156-0.51172-0.28516-0.69922-0.1875-0.18359-0.4375-0.28516-0.69922-0.28516h-5.9023c-0.26172 0-0.51172 0.10156-0.69531 0.28516-0.18359 0.1875-0.28906 0.4375-0.28906 0.69922v5.9023c0 0.26172 0.10547 0.51172 0.28906 0.69531 0.18359 0.18359 0.43359 0.28906 0.69531 0.28906zm0.98438-5.9023h3.9375v3.9375l-3.9375-0.003906z"/>
 </g>
</svg>
