<?xml version="1.0" encoding="UTF-8"?>
<svg width="100pt" height="100pt" version="1.1" viewBox="0 0 100 100" xmlns="http://www.w3.org/2000/svg">
 <g>
  <path d="m100 50c0 27.613-22.387 50-50 50s-50-22.387-50-50 22.387-50 50-50 50 22.387 50 50" fill="#ffc93f"/>
  <path d="m33.184 21.441c-0.54297 0.003906-0.98438 0.44531-0.98047 0.98828v6.3438c-0.36719-0.0625-0.74219-0.10547-1.125-0.10547-3.6016 0-6.5352 2.9375-6.5352 6.5352 0 2.1953 1.0977 4.1406 2.7656 5.3281-3.4492 1.4688-5.8711 4.8867-5.8711 8.875v4.4609c0 0.26172 0.10547 0.51562 0.28906 0.69922 0.1875 0.1875 0.4375 0.28906 0.69922 0.28906h3.082v10.496c0 0.26172 0.10547 0.51172 0.28906 0.69531 0.1875 0.18359 0.4375 0.28516 0.69922 0.28516h9.1719c0.26172 0 0.51172-0.10156 0.69922-0.28516 0.18359-0.18359 0.28906-0.43359 0.28906-0.69531v-10.496h3.082c0.54297-0.003907 0.98047-0.44531 0.98047-0.98828v-3.7422h36.863c0.53906 0 0.97656-0.4375 0.98047-0.98047v-26.715c0-0.54297-0.4375-0.98438-0.98047-0.98828zm0.98828 1.9688h42.422v24.75l-35.969-0.003906c-0.44531-3.4375-2.6953-6.3086-5.7773-7.6211 1.6719-1.1875 2.7734-3.1328 2.7734-5.3281 0-2.4805-1.4023-4.6484-3.4531-5.7578zm10.961 5.1289c-0.53516 0.039063-0.9375 0.5-0.91016 1.0352 0.027344 0.53516 0.47656 0.94922 1.0117 0.93359h16.691c0.26562 0.003907 0.52344-0.097656 0.71094-0.28125 0.19141-0.18359 0.29688-0.4375 0.29688-0.70312 0-0.26563-0.10547-0.51953-0.29688-0.70313-0.1875-0.1875-0.44531-0.28906-0.71094-0.28125h-16.691c-0.03125-0.003906-0.066406-0.003906-0.10156 0zm-14.055 2.0898c2.5352 0 4.5781 2.0391 4.5781 4.5742 0 2.5195-2.0156 4.5352-4.5273 4.5664h-0.050781-0.050781c-2.5117-0.027343-4.5156-2.0469-4.5156-4.5664 0-2.5352 2.0312-4.5742 4.5664-4.5742zm14.055 4.1641c-0.53516 0.039062-0.9375 0.5-0.91016 1.0352s0.47656 0.94922 1.0117 0.93359h24.449c0.53516-0.011719 0.96484-0.44922 0.96484-0.98438s-0.42969-0.97266-0.96484-0.98438h-24.449c-0.03125-0.003907-0.066406-0.003907-0.10156 0zm0.10156 6.2461c-0.53516 0.011719-0.96094 0.44922-0.96094 0.98438 0 0.53516 0.42578 0.97266 0.96094 0.98437h24.449c0.53516-0.011718 0.96484-0.44922 0.96484-0.98437 0-0.53516-0.42969-0.97266-0.96484-0.98438zm-14.234 0.70313c0.027344 0 0.050781 0.003906 0.078125 0.003906s0.050781-0.003906 0.078125-0.003906c4.2305 0.042968 7.5938 3.4258 7.5938 7.668v3.4805l-3.082-0.003906c-0.53906 0.003906-0.97656 0.44141-0.98047 0.98047v10.496h-7.2109v-10.496c-0.003906-0.54297-0.44141-0.98047-0.98047-0.98047h-3.0898v-3.4805c0-4.2422 3.3633-7.625 7.5938-7.668zm13.008 16.039c-2.9102 0-5.293 2.3828-5.293 5.293 0 1.6523 0.78125 3.1094 1.9727 4.082-2.5859 1.2422-4.3789 3.8789-4.3789 6.9375v3.4609c0.011718 0.53516 0.44922 0.96094 0.98438 0.96094 0.53516 0 0.97266-0.42578 0.98438-0.96094v-3.457c0-3.1914 2.5391-5.7305 5.7305-5.7305 3.1914 0 5.7227 2.5391 5.7227 5.7305v3.457c0 0.51562 0.39844 0.94531 0.91406 0.98047 0.035157 0.003906 0.066407 0.003906 0.097657 0.003906 0.53516-0.015624 0.95703-0.45312 0.95703-0.98437v-3.457c0-3.1914 2.5391-5.7305 5.7344-5.7305 3.1914 0 5.7305 2.5391 5.7305 5.7305v3.457c0 0.51562 0.39844 0.94141 0.91016 0.98047 0.035156 0.003906 0.066406 0.003906 0.10156 0.003906 0.53125-0.015624 0.95312-0.45312 0.95312-0.98437v-3.457c0-3.1914 2.5391-5.7305 5.7305-5.7305s5.7305 2.5391 5.7305 5.7305v3.457h0.003906c-0.007812 0.26172 0.09375 0.51953 0.28125 0.70703 0.18359 0.19141 0.4375 0.29688 0.70312 0.29688 0.26172 0 0.51562-0.10547 0.70312-0.29688 0.18359-0.1875 0.28516-0.44531 0.28125-0.70703v-3.457c0-3.0586-1.793-5.6953-4.3789-6.9375 1.1953-0.97266 1.9766-2.4336 1.9766-4.0859 0-2.9102-2.3828-5.293-5.293-5.293-2.9102 0-5.2891 2.3828-5.2891 5.293 0 1.6484 0.77734 3.1094 1.9688 4.082-1.4336 0.6875-2.6211 1.8008-3.3945 3.1797-0.77344-1.3789-1.9648-2.4922-3.3945-3.1797 1.1953-0.97266 1.9766-2.4297 1.9766-4.082 0-2.9102-2.3828-5.293-5.293-5.293s-5.2891 2.3828-5.2891 5.293c0 1.6484 0.77734 3.1094 1.9688 4.082-1.4336 0.6875-2.6211 1.8008-3.3945 3.1797-0.77344-1.3789-1.9609-2.4922-3.3906-3.1797 1.1914-0.97266 1.9688-2.4297 1.9688-4.082 0-2.9102-2.375-5.293-5.2852-5.293zm0 1.9688c1.8477 0 3.3203 1.4766 3.3203 3.3281 0 1.8477-1.4688 3.3203-3.3203 3.3203-1.8477 0-3.3281-1.4727-3.3281-3.3203s1.4766-3.3281 3.3281-3.3281zm13.426 0c1.8477 0 3.3281 1.4766 3.3281 3.3281 0 1.8477-1.4766 3.3203-3.3281 3.3203-1.8477 0-3.3203-1.4727-3.3203-3.3203s1.4727-3.3281 3.3203-3.3281zm13.43 0c1.8477 0 3.3281 1.4766 3.3281 3.3281 0 1.8477-1.4766 3.3203-3.3281 3.3203-1.8477 0-3.3281-1.4727-3.3281-3.3203s1.4766-3.3281 3.3281-3.3281z"/>
 </g>
</svg>
