<?xml version="1.0" encoding="UTF-8"?>
<svg width="100pt" height="100pt" version="1.1" viewBox="0 0 100 100" xmlns="http://www.w3.org/2000/svg">
 <g>
  <path d="m5 0h90c2.7617 0 5 2.7617 5 5v90c0 2.7617-2.2383 5-5 5h-90c-2.7617 0-5-2.7617-5-5v-90c0-2.7617 2.2383-5 5-5z" fill="#001219"/>
  <path d="m76.703 48.383-25.586-17.711h0.003906c-0.60156-0.41797-1.3867-0.46484-2.0352-0.125-0.64844 0.33594-1.0547 1.0078-1.0547 1.7422v13.957l-22.496-15.574c-0.60156-0.41797-1.3828-0.46484-2.0312-0.125-0.64844 0.33594-1.0547 1.0078-1.0547 1.7422v35.422c0 0.73437 0.40625 1.4023 1.0547 1.7422 0.64844 0.33984 1.4297 0.29297 2.0312-0.125l22.496-15.57v13.953c0 0.73437 0.40625 1.4023 1.0547 1.7422 0.64844 0.33984 1.4336 0.29297 2.0352-0.125l25.586-17.711h-0.003906c0.53125-0.36719 0.84766-0.97266 0.84766-1.6172s-0.31641-1.25-0.84766-1.6172zm-50.32 15.57v-27.91l20.16 13.957zm25.586 0v-27.91l20.156 13.957z" fill="#fff"/>
 </g>
</svg>
