<?xml version="1.0" encoding="UTF-8"?>
<svg width="100pt" height="100pt" version="1.1" viewBox="0 0 100 100" xmlns="http://www.w3.org/2000/svg">
 <g>
  <path d="m5 0h90c2.7617 0 5 2.7617 5 5v90c0 2.7617-2.2383 5-5 5h-90c-2.7617 0-5-2.7617-5-5v-90c0-2.7617 2.2383-5 5-5z" fill="#ca6702"/>
  <path d="m75.316 45.402c-2.0781 0-3.7773 1.3867-4.3438 3.2734h-7.9375v-5.7305h4.7852c0.75391 0 1.3242-0.62891 1.3242-1.3242v-5.9844c1.8906-0.56641 3.2734-2.332 3.2734-4.4102 0-2.5195-2.0781-4.5977-4.5977-4.5977-2.5195 0-4.5977 2.0781-4.5977 4.5977 0 2.0781 1.3867 3.7773 3.2734 4.4102v4.5977h-3.8398c-0.75391-1.9531-2.6445-3.3359-4.9141-3.3359l-6.418 0.003906v-5.793c1.8906-0.56641 3.2734-2.332 3.2734-4.3438 0-2.5195-2.0781-4.5977-4.5977-4.5977s-4.5977 2.0781-4.5977 4.5977c0 2.0781 1.3867 3.7773 3.2734 4.3438v5.793h-6.4844c-2.2031 0-4.0938 1.3867-4.9141 3.3359h-3.8398v-4.5977c1.8906-0.56641 3.2734-2.332 3.2734-4.4102 0-2.5195-2.0781-4.5977-4.5977-4.5977s-4.5977 2.0781-4.5977 4.5977c0 2.0781 1.3867 3.7773 3.2734 4.4102v5.9844c0 0.75391 0.62891 1.3242 1.3242 1.3242h4.7852v5.7305l-7.8711-0.003907c-0.56641-1.8906-2.332-3.2734-4.4102-3.2734-2.5195 0-4.5977 2.0781-4.5977 4.5977s2.0781 4.5977 4.5977 4.5977c2.0781 0 3.7773-1.3867 4.4102-3.2734h7.8711v5.668h-4.7852c-0.75391 0-1.3242 0.62891-1.3242 1.3242v6.0469c-1.8906 0.56641-3.2734 2.332-3.2734 4.3438 0 2.5195 2.0781 4.5977 4.5977 4.5977s4.5977-2.0781 4.5977-4.5977c0-2.0781-1.3867-3.7773-3.2734-4.3438v-4.7227h3.8398c0.75391 1.9531 2.6445 3.3359 4.9141 3.3359h6.4219v5.7305c-1.8906 0.56641-3.2734 2.332-3.2734 4.3438 0 2.5195 2.0781 4.5977 4.5977 4.5977s4.5977-2.0781 4.5977-4.5977c0-2.0781-1.3867-3.7773-3.2734-4.3438v-5.7305h6.4219c2.2031 0 4.0938-1.3867 4.9141-3.3359h3.8398v4.7227c-1.8906 0.56641-3.2734 2.332-3.2734 4.3438 0 2.5195 2.0781 4.5977 4.5977 4.5977s4.5977-2.0781 4.5977-4.5977c0-2.0781-1.3867-3.7773-3.2734-4.3438v-6.0469c0-0.75391-0.56641-1.3242-1.3242-1.3242h-4.7852v-5.668h7.9336c0.56641 1.8906 2.332 3.2734 4.3438 3.2734 2.5195 0 4.5977-2.0781 4.5977-4.5977 0.0625-2.5195-2.0156-4.5977-4.5352-4.5977zm-9.3828-14.105c0-1.0703 0.88281-1.8906 1.8906-1.8906 1.0703 0 1.8906 0.88281 1.8906 1.8906 0 1.0703-0.88281 1.8906-1.8906 1.8906-1.0078-0.003906-1.8906-0.82031-1.8906-1.8906zm-17.887-4.4727c0-1.0703 0.88281-1.8906 1.8906-1.8906 1.0703 0 1.8906 0.88281 1.8906 1.8906 0 1.0703-0.88281 1.8906-1.8906 1.8906s-1.8906-0.82031-1.8906-1.8906zm-17.82 4.4727c0-1.0703 0.88281-1.8906 1.8906-1.8906 1.0703 0 1.8906 0.88281 1.8906 1.8906 0 1.0703-0.88281 1.8906-1.8906 1.8906-1.0742-0.003906-1.8906-0.82031-1.8906-1.8906zm-5.543 20.656c-1.0078 0-1.8906-0.88281-1.8906-1.8906 0-1.0703 0.88281-1.8906 1.8906-1.8906 1.0703 0 1.8906 0.88281 1.8906 1.8906s-0.88281 1.8906-1.8906 1.8906zm9.3828 16.812c0 1.0703-0.88281 1.8906-1.8906 1.8906-1.0703 0-1.8906-0.88281-1.8906-1.8906 0-1.0703 0.88281-1.8906 1.8906-1.8906 1.0078 0.003906 1.8906 0.82031 1.8906 1.8906zm17.824 4.4102c0 1.0703-0.88281 1.8906-1.8906 1.8906-1.0703 0-1.8906-0.88281-1.8906-1.8906 0-1.0078 0.88281-1.8906 1.8906-1.8906 1.0703 0 1.8906 0.88281 1.8906 1.8906zm17.883-4.4102c0 1.0703-0.88281 1.8906-1.8906 1.8906-1.0703 0-1.8906-0.88281-1.8906-1.8906 0-1.0703 0.88281-1.8906 1.8906-1.8906 1.0117 0.003906 1.8906 0.82031 1.8906 1.8906zm-9.3828-10.957c0 1.4492-1.1328 2.582-2.582 2.582h-15.617c-1.4492 0-2.582-1.1328-2.582-2.582v-15.555c0-1.4492 1.1328-2.582 2.582-2.582h15.555c1.4492 0 2.582 1.1328 2.582 2.582v15.555zm14.926-5.8555c-1.0703 0-1.8906-0.88281-1.8906-1.8906 0-1.0703 0.88281-1.8906 1.8906-1.8906 1.0703 0 1.8906 0.88281 1.8906 1.8906s-0.82031 1.8906-1.8906 1.8906z" fill="#fff"/>
  <path d="m54.848 43.828h-9.6953c-0.75391 0-1.3242 0.62891-1.3242 1.3242v9.6992c0 0.75391 0.62891 1.3242 1.3242 1.3242h9.6992c0.75391 0 1.3242-0.62891 1.3242-1.3242l-0.003906-9.6992c0-0.75781-0.56641-1.3242-1.3242-1.3242zm-1.3203 9.6992h-7.0547v-7.0547h7.0547z" fill="#fff"/>
 </g>
</svg>
