<?xml version="1.0" encoding="UTF-8"?>
<svg width="100pt" height="100pt" version="1.1" viewBox="0 0 100 100" xmlns="http://www.w3.org/2000/svg">
 <g>
  <path d="m5 0h90c2.7617 0 5 2.7617 5 5v90c0 2.7617-2.2383 5-5 5h-90c-2.7617 0-5-2.7617-5-5v-90c0-2.7617 2.2383-5 5-5z" fill="#bb3e03"/>
  <path d="m43.863 32.125c0.039063-0.011719 0.082031-0.019531 0.125-0.019531s0.082031 0.007812 0.12109 0.019531l3.5-0.007812h0.03125c0.63672 0.027343 0.96875-0.31641 1.1367-0.80859 0.19922-0.58203 0.19922-1.3633 0.16016-2.0664-0.003906-0.015626-0.003906-0.03125-0.003906-0.046876v-4.6914h-14.801v4.6914 0.019532c-0.035156 0.70703-0.035156 1.5117 0.17188 2.1094 0.17187 0.5 0.50781 0.85547 1.1445 0.82812h0.015625l8.4023-0.023438zm-5.9766-5.3242c-0.20312 0-0.36719-0.16406-0.36719-0.36719s0.16406-0.36719 0.36719-0.36719h7.0781c0.20312 0 0.36719 0.16406 0.36719 0.36719s-0.16406 0.36719-0.36719 0.36719zm11.047-3.0312v-1.4492h-14.801v1.4492zm-7.5195 33.172h0.48828v-4.375c-0.11328 0.007813-0.23047 0.007813-0.34375 0.003906-0.050782-0.003906-0.097656-0.003906-0.14844-0.007812v4.3828zm7.082 20.734c0.20312 0 0.36719 0.16406 0.36719 0.36719s-0.16406 0.36719-0.36719 0.36719h-10.516c-0.32031 0-0.45312 0.011719-0.72656-0.17969-0.37891-0.26562-0.66406-0.66016-0.85547-1.125-0.21875-0.52734-0.31641-1.1484-0.30078-1.7578 0.019532-0.60938 0.15234-1.2109 0.39844-1.6953 0.23438-0.46094 0.53516-0.80859 0.97656-0.99219 0.050782-0.019531 0.21094-0.046875 0.26172-0.042968h21.332c0.17578 0 0.24219-0.039063 0.38281-0.15234 0.23047-0.17969 0.33594-0.38672 0.46484-0.69531 0.17969-0.43359 0.25781-0.94922 0.24609-1.457-0.015625-0.50391-0.12109-0.99219-0.32031-1.3828-0.12109-0.23438-0.26953-0.42969-0.44922-0.55469-0.14453-0.10547-0.22266-0.078125-0.39453-0.078125l-9.543 0.007813-13.285 0.007812c-0.046875 0-0.089844-0.007812-0.13281-0.023438-0.84766-0.32812-1.3828-1.0156-1.6328-1.8125-0.12109-0.38281-0.17188-0.78906-0.16016-1.1953 0.011718-0.40234 0.089843-0.80469 0.23047-1.1719 0.28125-0.73047 0.81641-1.3281 1.5859-1.5703 0.046875-0.011718 0.089844-0.019531 0.13281-0.015624h28.172c0.18359 0 0.25 0.015624 0.41406-0.074219 0.49219-0.26562 0.81641-0.72656 0.98047-1.2461 0.097657-0.30469 0.13672-0.63281 0.12891-0.95703-0.007813-0.32031-0.070313-0.63672-0.18359-0.92969-0.17969-0.46484-0.49219-0.85547-0.92578-1.0586-0.15625-0.074218-0.24609-0.0625-0.41797-0.0625l-11.598 0.011719-4.0039 0.011719c-0.035156 0-0.066406-0.003906-0.10156-0.011719-0.625-0.15234-1.0898-0.57812-1.3945-1.1328-0.26562-0.48828-0.40625-1.0781-0.41797-1.6719s0.10938-1.1953 0.35938-1.6992c0.29688-0.59766 0.77734-1.0664 1.4492-1.2578 0.039062-0.011718 0.082031-0.015624 0.12109-0.011718h12.668c0.52344-0.11719 0.88281-0.44922 1.1016-0.87891 0.17969-0.35938 0.26562-0.78516 0.26172-1.2148-0.003907-0.43359-0.097657-0.87109-0.27734-1.2461-0.20312-0.42578-0.51172-0.76953-0.91797-0.92578-0.12109-0.046875-0.16406-0.050781-0.28906-0.050781h-6.2148c-0.20312 0-0.36719-0.16406-0.36719-0.36719s0.16406-0.36719 0.36719-0.36719h6.1797c0.20703 0 0.24219-0.007812 0.45312 0.054688 0.66406 0.19922 1.1523 0.70703 1.4531 1.3438 0.22266 0.46875 0.33984 1.0156 0.34766 1.5547 0.003907 0.54297-0.10547 1.0859-0.33984 1.5508-0.31641 0.62891-0.85547 1.1133-1.6328 1.2734-0.027344 0.007813-0.058594 0.011719-0.085937 0.011719h-12.672c-0.42969 0.13672-0.74609 0.45703-0.94531 0.86328-0.19922 0.40234-0.29297 0.88281-0.28516 1.3633 0.007813 0.48047 0.11719 0.94922 0.32812 1.332 0.20312 0.375 0.50391 0.66016 0.89453 0.76562l3.9609-0.011719 11.645-0.011719c0.22656 0 0.32031-0.015625 0.53906 0.066406 0.69141 0.26953 1.1758 0.83594 1.4414 1.5195 0.14062 0.36719 0.21875 0.76562 0.23047 1.1719 0.011718 0.40234-0.039063 0.8125-0.16016 1.1953-0.23047 0.73438-0.70703 1.3789-1.4414 1.7305-0.25 0.12109-0.32812 0.10938-0.60547 0.10938h-28.18c-0.51172 0.17969-0.875 0.60156-1.0742 1.1172-0.10938 0.28906-0.17188 0.60547-0.18359 0.92969-0.007812 0.32031 0.03125 0.64844 0.12891 0.95703 0.17969 0.57812 0.55859 1.0781 1.1367 1.3242l13.211-0.007812 9.5039-0.007813c0.34375 0 0.44531-0.039063 0.74609 0.14062 0.33203 0.19922 0.59766 0.51172 0.78906 0.89453 0.24609 0.48438 0.38281 1.0859 0.39844 1.6953 0.019531 0.60547-0.078125 1.2266-0.30078 1.7578-0.21484 0.51562-0.51172 0.92969-0.96094 1.1914-0.17188 0.10156-0.23438 0.10938-0.42969 0.10938h-21.289c-0.125 0-0.18359-0.011719-0.28906 0.058593-0.19141 0.12891-0.35156 0.32812-0.47656 0.57812-0.19922 0.39062-0.30469 0.87891-0.32031 1.3828-0.015624 0.50781 0.066407 1.0234 0.24609 1.457 0.12109 0.29297 0.28906 0.54297 0.5 0.72656 0.19531 0.16797 0.34375 0.12109 0.59766 0.12109h10.324zm-4.1406-44.82v16.824c0 0.14453 0.003906 0.21484 0.003906 0.28516 0.015625 0.57031 0.03125 1.1094-0.41406 1.6133-0.085937 0.097656-0.17578 0.1875-0.26172 0.26172-0.31641 0.27734-0.66797 0.46875-1.043 0.58594v6.8984c0 0.03125-0.003906 0.058593-0.011719 0.085937-0.054687 0.32812-0.24219 0.54688-0.48438 0.66797-0.14062 0.070313-0.30078 0.10547-0.46094 0.10547-0.15625 0-0.3125-0.03125-0.45312-0.097656-0.27344-0.125-0.49219-0.36719-0.54688-0.71094-0.003906-0.019531-0.003906-0.035156-0.003906-0.054688v-6.918c-0.41406-0.13281-0.79297-0.34766-1.1094-0.625-0.089843-0.082032-0.17187-0.16016-0.24609-0.24219-0.40625-0.46094-0.39453-0.91016-0.37891-1.4141 0.003907-0.0625 0.003907-0.12891 0.003907-0.26172v-16.992l-3.4766 0.007812c-1.043 0.042969-1.5938-0.51953-1.8672-1.3242-0.24219-0.70312-0.24609-1.5859-0.20703-2.3633v-7.2383c0-0.20312 0.16406-0.36719 0.36719-0.36719h15.539c0.20312 0 0.36719 0.16406 0.36719 0.36719v7.2461c0.039063 0.77344 0.035156 1.6445-0.19922 2.3398-0.26953 0.79688-0.8125 1.3516-1.8594 1.3086l-3.2578 0.007812zm-4.668 0.011719v16.996c0 0.054688-0.003906 0.16797-0.007812 0.28125-0.011719 0.35547-0.019532 0.66406 0.19922 0.91016 0.058594 0.066406 0.12109 0.12891 0.17969 0.17969 0.40625 0.35938 0.96094 0.57812 1.5352 0.60156 0.56641 0.023437 1.1445-0.14453 1.6055-0.54688 0.074219-0.0625 0.14062-0.12891 0.19922-0.19922 0.25391-0.28906 0.24219-0.6875 0.23047-1.1094-0.003906-0.12109-0.007812-0.24609-0.007812-0.30078v-16.82l-3.9336 0.011719z" fill="#fff"/>
 </g>
</svg>
