<?xml version="1.0" encoding="UTF-8"?>
<svg width="100pt" height="100pt" version="1.1" viewBox="0 0 100 100" xmlns="http://www.w3.org/2000/svg">
 <g>
  <path d="m5 0h90c2.7617 0 5 2.7617 5 5v90c0 2.7617-2.2383 5-5 5h-90c-2.7617 0-5-2.7617-5-5v-90c0-2.7617 2.2383-5 5-5z" fill="#828942"/>
  <path d="m59.617 52.336c-0.69141-0.39844-0.92578-1.2812-0.52344-1.9727 0.39844-0.69141 1.2812-0.92578 1.9727-0.52344l9.6211 5.6094c0.69141 0.39844 0.92578 1.2812 0.52344 1.9727-0.13281 0.23047-0.32031 0.41016-0.53906 0.53125l-9.6055 5.6016c-0.69141 0.39844-1.5703 0.16406-1.9727-0.52344-0.39844-0.69141-0.16406-1.5703 0.52344-1.9727l7.4766-4.3594-7.4766-4.3594zm-34.098-20.473c-0.80078 0-1.4453-0.64844-1.4453-1.4453 0-0.80078 0.64844-1.4453 1.4453-1.4453h3.4883c0.80078 0 1.4453 0.64844 1.4453 1.4453 0 0.80078-0.64844 1.4453-1.4453 1.4453zm27.801 15.875c0.40625-0.6875 1.2891-0.91406 1.9766-0.50781s0.91406 1.2891 0.50781 1.9766l-9.125 15.348c-0.40625 0.6875-1.2891 0.91406-1.9766 0.50781s-0.91406-1.2891-0.50781-1.9766zm-31.285-12.918h55.934v-6.9688c0-0.48828-0.19922-0.93359-0.52344-1.2578-0.32422-0.32422-0.76562-0.52344-1.2578-0.52344h-52.371c-0.48828 0-0.93359 0.19922-1.2578 0.52344-0.32422 0.32422-0.52344 0.76562-0.52344 1.2578zm55.934 2.8906h-55.934v34.434c0 0.48828 0.19922 0.93359 0.52344 1.2578 0.32422 0.32422 0.76562 0.52344 1.2578 0.52344h52.371c0.48828 0 0.93359-0.19922 1.2578-0.52344 0.32422-0.32422 0.52344-0.76562 0.52344-1.2578zm-54.152-14.531h52.371c1.2852 0 2.457 0.52344 3.3008 1.3711 0.84766 0.84766 1.3711 2.0156 1.3711 3.3008v44.293c0 1.2852-0.52344 2.4531-1.3711 3.3008-0.84766 0.84766-2.0156 1.3711-3.3008 1.3711h-52.371c-1.2852 0-2.457-0.52344-3.3008-1.3711-0.84766-0.84766-1.3711-2.0156-1.3711-3.3008v-44.293c0-1.2852 0.52344-2.4531 1.3711-3.3008 0.84766-0.84766 2.0156-1.3711 3.3008-1.3711zm15.125 26.66c0.69141-0.39844 1.5703-0.16406 1.9727 0.52344 0.39844 0.69141 0.16406 1.5703-0.52344 1.9727l-7.4766 4.3594 7.4766 4.3594c0.69141 0.39844 0.92578 1.2812 0.52344 1.9727-0.39844 0.69141-1.2812 0.92578-1.9727 0.52344l-9.6055-5.6016c-0.21875-0.12109-0.40625-0.30078-0.53906-0.53125-0.39844-0.69141-0.16406-1.5703 0.52344-1.9727l9.6211-5.6094z" fill="#fff"/>
 </g>
</svg>
