<?xml version="1.0" encoding="UTF-8"?>
<svg width="100pt" height="100pt" version="1.1" viewBox="0 0 100 100" xmlns="http://www.w3.org/2000/svg">
 <g>
  <path d="m5 0h90c2.7617 0 5 2.7617 5 5v90c0 2.7617-2.2383 5-5 5h-90c-2.7617 0-5-2.7617-5-5v-90c0-2.7617 2.2383-5 5-5z" fill="#ae2012"/>
  <path d="m75.031 45.445v14.863c0 1.5312-0.42188 2.2422-1.5977 2.8398-1.2031 0.61719-3.0469 1.207-5.3438 1.7031-4.5938 0.98828-11.008 1.6094-18.094 1.6094-7.0859 0-13.496-0.62109-18.09-1.6094-2.2969-0.49609-4.125-1.125-5.3477-1.7031-1.3555-0.63672-1.5938-1.4062-1.5938-2.8398l0.007812-14.859c0.22656 0.14844 0.46094 0.29297 0.72266 0.4375 1.3711 0.72656 3.3125 1.3711 5.8789 1.9219 10.254 2.2227 26.59 2.2227 36.848 0 2.5664-0.55469 4.5078-1.1953 5.8789-1.9219 0.26562-0.14453 0.50391-0.28906 0.73047-0.44141zm-32.18-2.4922h12.035c1.1992 0 2.2109 0.35938 2.9297 1.043 0.71484 0.6875 1.1875 1.7188 1.1875 3.293 0 0.058594 0.003906 0.11328 0.015625 0.17188-6.5625 0.53516-13.945 0.46484-20.293-0.21094 0.007813-1.5469 0.48047-2.5742 1.1914-3.25 0.72266-0.6875 1.7344-1.0469 2.9336-1.0469zm26.203-2.7422c1.8516 0.46484 3.5547 0.96094 4.5039 1.4648 1.9219 1.0117 1.6055 1.9453 0 2.8125-0.94922 0.50781-2.6523 0.99219-4.5039 1.4531zm-38.105-0.003907v5.7383c-1.8555-0.46484-3.5586-0.95703-4.5078-1.4609-1.9141-1.0117-1.6016-1.9492 0-2.8125 0.94531-0.50781 2.6523-1 4.5078-1.4648zm1.0586-1.8867c-0.039062-0.003906-0.082031-0.003906-0.13281 0.003907-2.1602 0.41406-4.4297 1.0742-6.1797 1.9531-1.2695 0.64844-2.3125 1.5391-2.3125 2.8047v17.227c0 2.1094 0.79297 3.4023 2.4648 4.2578 1.4062 0.71875 3.3516 1.3242 5.7305 1.832 2.2852 0.49219 4.9766 0.89062 7.9492 1.1719l0.65625 9.5c0.011718 1.1211 1.7305 1.0039 1.582-0.11719l-0.63672-9.2461c2.7773 0.21875 5.7539 0.34375 8.875 0.34375 2.2852 0 4.4844-0.070312 6.5977-0.19141l-0.62891 9.0938c-0.10156 1.082 1.5352 1.1992 1.5859 0.11719l0.64062-9.3086c3.8867-0.27734 7.3789-0.74219 10.234-1.3594 2.375-0.51172 4.3008-1.1523 5.7266-1.832 1.7773-0.84375 2.4648-2.2812 2.4648-4.2578l-0.007812-17.234c0-1.418-1.2305-2.2812-2.3125-2.8047-2.1406-1.0312-4.1641-1.6211-6.0352-1.9453-0.4375-0.078125-0.80469 0.35156-0.80469 0.79297l-0.003906 7.1914c-2.0703 0.42578-4.4023 0.75391-6.8672 0.99609v-0.023438c0-1.9062-0.625-3.4336-1.6836-4.4414s-2.5039-1.4766-4.0234-1.4766h-12.035c-1.5195 0-2.9648 0.46484-4.0273 1.4766-1.0156 0.96875-1.625 2.418-1.6719 4.2148-1.6328-0.20312-3.1914-0.44922-4.6172-0.74219l-0.003906-7.1914c0.003906-0.34375-0.22266-0.75391-0.52344-0.80469z" fill="#fff" fill-rule="evenodd"/>
  <path d="m48.852 70.516c-0.4375 0.007813-0.78906 0.36719-0.77734 0.80469v5.6836c-0.019531 0.45312 0.33984 0.82422 0.78906 0.82422 0.45312 0 0.8125-0.37109 0.79688-0.82422v-5.6836c0.007813-0.44922-0.35938-0.8125-0.80859-0.80469z" fill="#fff"/>
  <path d="m48.891 22.152c-1.8828 0-3.7656 0.76172-5.2188 2.2891-0.30859 0.32422-0.3125 0.83203-0.011719 1.1328 0.30469 0.30078 0.80078 0.28516 1.1133-0.035157 2.2969-2.4219 5.8242-2.4297 8.1641 0.023438 0.29688 0.31641 0.79297 0.3125 1.1094-0.003906 0.32031-0.31641 0.33984-0.82812 0.042969-1.1367-1.4375-1.5117-3.3203-2.2695-5.1992-2.2695z" fill="#fff" fill-rule="evenodd"/>
  <path d="m44.004 34.25h9.6875c-1.1328 1.7539-2.9492 2.8008-4.8828 2.793-1.9336-0.011719-3.707-1.0586-4.8047-2.793zm-1.8945-6.0352h13.523c0.046876 0 0.15234 0.0625 0.15234 0.27344v3.8945c0 0.21094-0.10547 0.27344-0.15234 0.27344h-13.523c-0.050781 0-0.16016-0.0625-0.16016-0.27344v-3.8945c-0.003907-0.21094 0.10547-0.27344 0.16016-0.27344zm0-1.5938c-1.0078 0-1.7461 0.89453-1.7461 1.8672v3.8945c0 0.96875 0.73828 1.8672 1.7461 1.8672h0.12109c1.2969 2.6602 3.8477 4.3867 6.6328 4.3984 2.8281 0.015624 5.3789-1.7109 6.668-4.3984h0.097656c1.0078 0 1.7461-0.89453 1.7461-1.8672v-3.8945c0-0.96875-0.73828-1.8672-1.7461-1.8672z" fill="#fff" fill-rule="evenodd"/>
 </g>
</svg>
